# Mvds OBJ File:
# www.martenvdsanden.net/mvds
mtllib nao.mtl
o this_is_here_because_of_a_bug_in_simsaprk
v 0.0439998 -0.0300002 0.0440002
v 0.0440002 -0.0209901 -0.0439998
v 0.0439996 -0.0500002 0.0440002
v 0.044 -0.0500002 -0.0439998
v 0.0354193 -0.0209901 0.0220002
v 0.0354194 -0.0209901 1.58325e-07
v 0.0354194 -0.0209901 -0.0219998
v 0.035419 -0.0500002 0.0220002
v 0.0354192 -0.0500002 1.56462e-07
v 0.0354193 -0.0500002 -0.0219998
v 0.044 -0.0209901 0.022
v 0.0440001 -0.0209901 0
v 0.0440002 -0.0209901 -0.022
v 0.0439998 -0.0500002 0.022
v 0.0439999 -0.0500002 0
v 0.044 -0.0500002 -0.022
v 0.0403224 -0.0302366 0.0532802
v 0.0308615 -0.0302365 0.0674396
v 0.0167022 -0.0302363 0.0769006
v 8.26433e-08 -0.0302362 0.0802229
v -0.0167022 -0.030236 0.0769006
v -0.0308617 -0.0302358 0.0674396
v -0.0403228 -0.0302357 0.0532802
v -0.0403227 -0.023844 0.0520089
v -0.0308614 -0.0184255 0.0650906
v -0.0167018 -0.0148052 0.0738314
v 4.01183e-07 -0.013534 0.0769008
v 0.0167025 -0.0148055 0.0738314
v 0.0308618 -0.0184262 0.0650905
v 0.0403226 -0.023845 0.0520089
v 0.0436445 -0.0302366 0.036578
v -0.0436452 -0.0302356 0.036578
v 0.0403224 -0.0302366 0.0606298
v 0.0308615 -0.0302365 0.0747891
v 0.0167022 -0.0302363 0.0842502
v 8.26433e-08 -0.0302362 0.0875724
v -0.0167022 -0.030236 0.0842502
v -0.0308617 -0.0302358 0.0747891
v -0.0403228 -0.0302357 0.0606298
v -0.0403227 -0.023844 0.0593585
v -0.0308614 -0.0184255 0.0724401
v -0.0167018 -0.0148052 0.081181
v 4.01183e-07 -0.013534 0.0842503
v 0.0167025 -0.0148055 0.081181
v 0.0308618 -0.0184262 0.0724401
v 0.0403225 -0.023845 0.0593584
v 0.0436445 -0.0302366 0.0439275
v -0.0436452 -0.0302356 0.0439276
v 0.0436453 -0.0305067 0.0368263
v 0.0403232 -0.0305067 0.0535285
v 0.0308623 -0.0305066 0.0676879
v 0.016703 -0.0305065 0.077149
v 8.82667e-07 -0.0305063 0.0804712
v -0.0167014 -0.0305062 0.077149
v -0.0308609 -0.0305059 0.0676879
v -0.040322 -0.0305058 0.0535285
v -0.0403219 -0.0241142 0.0522572
v -0.0308606 -0.0186957 0.0653389
v -0.016701 -0.0150753 0.0740798
v 1.20121e-06 -0.0138042 0.0771491
v 0.0167033 -0.0150757 0.0740798
v 0.0308626 -0.0186964 0.0653389
v 0.0403233 -0.024115 0.0522572
v 0.0403234 -0.0186965 0.0486367
v 0.0308626 -0.0086842 0.058649
v 0.0167034 -0.0019941 0.065339
v 1.35997e-06 0.000355303 0.0676882
v -0.0167009 -0.0019937 0.065339
v -0.0308605 -0.0086835 0.058649
v -0.0403218 -0.0186956 0.0486367
v -0.0403218 -0.015075 0.0432182
v -0.0308605 -0.0019935 0.0486369
v -0.0167008 0.0067472 0.0522575
v 1.43914e-06 0.0098163 0.053529
v 0.0167035 0.0067468 0.0522575
v 0.0308627 -0.0019942 0.0486369
v 0.0403234 -0.0150759 0.0432182
v 0.0403234 -0.0138045 0.0368266
v 0.0308626 0.000355007 0.0368267
v 0.0167034 0.0098162 0.0368268
v 1.35885e-06 0.0131386 0.0368268
v -0.0167009 0.0098166 0.0368268
v -0.0308605 0.000355701 0.0368267
v -0.0403218 -0.0138036 0.0368266
v -0.0436445 -0.0305058 0.0368263
v -0.031113 -0.0299998 0.0751126
v -0.0168385 -0.0299999 0.0846506
v -3.97377e-07 -0.03 0.088
v 0.0168377 -0.0300001 0.0846508
v 0.0311124 -0.0300002 0.0751128
v 0.0406504 -0.0300002 0.0608382
v 0.0439998 -0.0300002 0.0440002
v -0.0440002 -0.0299998 0.0439998
v -0.040651 -0.0299998 0.0608379
v -0.0439998 -0.0209897 -0.0440002
v -0.0406504 -0.0209897 -0.0608382
v -0.0311124 -0.0209898 -0.0751128
v -0.0168377 -0.0209898 -0.0846508
v 4.02623e-07 -0.03 -0.088
v 0.0168385 -0.02099 -0.0846506
v 0.031113 -0.0209901 -0.0751126
v 0.040651 -0.0209901 -0.0608379
v 0.0440002 -0.0209901 -0.0439998
v -0.0311132 -0.0499998 0.0751125
v -0.0168386 -0.0499998 0.0846506
v -5.55629e-07 -0.0499999 0.088
v 0.0168375 -0.05 0.0846507
v 0.0311122 -0.0500001 0.0751128
v 0.0406502 -0.0500002 0.0608382
v 0.0439996 -0.0500002 0.0440002
v -0.0440004 -0.0499998 0.0439998
v -0.0406511 -0.0499998 0.0608379
v -0.044 -0.0499998 -0.0440002
v -0.0406506 -0.0499998 -0.0608382
v -0.0311126 -0.0499998 -0.0751129
v -0.0168379 -0.0499998 -0.0846508
v 1.64371e-07 -0.05 -0.088
v 0.0168382 -0.0500001 -0.0846506
v 0.0311129 -0.0500001 -0.0751126
v 0.0406508 -0.0500002 -0.0608379
v 0.044 -0.0500002 -0.0439998
v 0.0354193 -0.0209901 0.0220002
v 0.0354194 -0.0209901 1.58325e-07
v 0.0354194 -0.0209901 -0.0219998
v -0.0440001 -0.0209897 0.0219998
v -0.044 -0.0209897 -1.60187e-07
v -0.0439999 -0.0209897 -0.0220002
v 0.035419 -0.0500002 0.0220002
v 0.0354192 -0.0500002 1.56462e-07
v 0.0354193 -0.0500002 -0.0219998
v -0.0440003 -0.0499998 0.0219998
v -0.0440002 -0.0499998 -2.45869e-07
v -0.0440001 -0.0499998 -0.0220002
vn 0.89443 0.413843 0.169498
vn 0.89443 0.447209 7.57277e-08
vn 0.707103 -0.70711 6.46562e-06
vn 0.707104 -0.707109 -8.23982e-13
vn 4.23098e-06 0.981173 0.193133
vn 7.2357e-08 1 -5.64439e-08
vn 7.23563e-08 1 -8.46658e-08
vn 4.3414e-07 -1 -8.46615e-08
vn 4.34144e-07 -1 -1.12885e-07
vn 1.44716e-07 -1 1.23161e-13
vn 0.561181 0.820833 0.106345
vn 0.707109 0.707104 3.15304e-06
vn 0.832053 0.554696 2.46562e-06
vn 0.799997 -0.600004 4.83774e-06
vn 0.707104 -0.707109 3.15302e-06
vn 0.832048 -0.554704 1.26803e-06
vn -8.35046e-07 -1 3.37914e-07
vn -1.14514e-05 -1 8.44794e-07
vn -1.10644e-05 -1 3.37918e-07
vn -9.08359e-06 -1 2.53436e-07
vn -1.34178e-05 -1 1.01375e-06
vn -1.2982e-05 -1 8.44793e-07
vn -2.34943e-05 -1 1.68958e-07
vn -0.785403 0.618985 -1.51982e-07
vn -0.417252 0.908791 -1.60917e-07
vn -0.191082 0.981574 -7.04119e-07
vn 9.21314e-06 1 2.49825e-07
vn 0.191108 0.981569 2.09996e-08
vn 0.417294 0.908772 2.29401e-06
vn 0.785447 0.618929 6.56806e-06
vn 0.854742 -0.519054 2.49927e-08
vn -0.854767 -0.519012 -2.6307e-07
vn 0.522528 -0.824778 0.216113
vn 0.598264 -0.534055 0.597383
vn 0.245128 -0.646059 0.722855
vn -0.059352 -0.441863 0.895117
vn -0.337059 -0.649689 0.681392
vn -0.5609 -0.666937 0.490497
vn -0.522545 -0.824766 0.216121
vn -0.851662 0.463222 0.245149
vn -0.597348 0.664269 0.449358
vn -0.286137 0.754653 0.590444
vn 0.0494873 0.66378 0.746289
vn 0.361876 0.746534 0.55833
vn 0.574723 0.747421 0.33325
vn 0.851687 0.463178 0.245143
vn 0.933623 -0.352113 0.0660709
vn -0.93364 -0.352065 0.0660748
vn 0.927891 0.120563 -0.352821
vn 0.921427 0.0757849 0.381088
vn 0.700748 0.139155 0.699705
vn 0.315606 0.185104 0.930661
vn -0.0648888 0.194671 0.97872
vn -0.43649 0.175523 0.882422
vn -0.746393 0.129839 0.652716
vn -0.921419 0.0758155 0.381103
vn -0.907915 0.139428 0.395285
vn -0.707593 0.261939 0.656277
vn -0.383148 0.348958 0.855235
vn 4.55098e-06 0.382676 0.923883
vn 0.409074 0.375174 0.831807
vn 0.734958 0.280203 0.617513
vn 0.907927 0.13939 0.39527
vn 0.896753 0.31291 0.312922
vn 0.678586 0.495091 0.542591
vn 0.419327 0.665352 0.617634
vn 0.0661673 0.705552 0.705562
vn -0.321145 0.669649 0.669653
vn -0.659259 0.531684 0.531685
vn -0.896737 0.312941 0.312938
vn -0.907913 0.395292 0.139422
vn -0.707589 0.656281 0.26194
vn -0.383142 0.855235 0.348964
vn 1.09776e-05 0.923878 0.382687
vn 0.383167 0.851484 0.357991
vn 0.706866 0.634162 0.313337
vn 0.907929 0.39526 0.139409
vn 0.522536 0.216116 -0.824773
vn 0.598277 0.597382 -0.53404
vn 0.287089 0.846544 -0.448268
vn -0.0654418 0.987196 -0.145469
vn -0.337044 0.681401 -0.649687
vn -0.560887 0.490508 -0.666939
vn -0.522529 0.21614 -0.824771
vn -0.984111 0.127906 -0.123145
vn -0.461799 0.713167 0.527385
vn -0.265431 0.561314 0.783883
vn 0.0626522 0.321153 0.944953
vn 0.310521 0.713161 0.628473
vn 0.527392 0.71316 0.461801
vn 0.505603 0.836962 0.209429
vn 0.893173 0.449605 0.00991419
vn -0.702057 0.682433 0.203474
vn -0.628467 0.713168 0.310516
vn -0.597071 0.801236 -0.0390809
vn -0.733891 0.607448 -0.303992
vn -0.461794 0.713169 -0.527387
vn -0.238065 0.427656 -0.872029
vn 6.58374e-06 0.0715032 -0.99744
vn 0.291758 0.52453 -0.799841
vn 0.527393 0.713161 -0.461798
vn 0.663971 0.71316 -0.224823
vn 0.689836 0.721416 0.0607044
vn -0.527392 -0.713161 0.4618
vn -0.366608 -0.56131 0.741977
vn -0.0626601 -0.321154 0.944952
vn 0.224817 -0.713166 0.663967
vn 0.461793 -0.713167 0.527389
vn 0.73389 -0.607449 0.303992
vn 0.689828 -0.721425 -0.0606963
vn -0.443348 -0.895285 0.0436649
vn -0.66397 -0.71316 0.224825
vn -0.593231 -0.801229 -0.0781603
vn -0.646917 -0.713928 -0.267964
vn -0.446433 -0.804913 -0.390913
vn -0.340936 -0.454179 -0.823095
vn 1.27913e-06 -0.454185 -0.890908
vn 0.224822 -0.713167 -0.663963
vn 0.545205 -0.561316 -0.622636
vn 0.531991 -0.804919 -0.26285
vn 0.88348 -0.461974 0.0777438
vn 0.557297 0.82247 0.113854
vn 0.707111 0.707102 3.27277e-06
vn 0.688854 0.713224 0.129585
vn -0.561174 0.820838 0.10634
vn -0.707103 0.707111 -3.29271e-06
vn -0.832047 0.554706 -3.71015e-06
vn 0.781246 -0.606678 -0.14696
vn 0.707103 -0.70711 3.23283e-06
vn 0.433409 -0.897502 0.081532
vn -0.800004 -0.599995 -3.10011e-06
vn -0.707111 -0.707102 -3.19296e-06
vn -0.832054 -0.554695 -3.71018e-06
o this_is_here_because_of_a_bug_in_simsaprk
o this_is_here_because_of_a_bug_in_simsaprk
o foot.002_Sphere.002
s on
usemtl matTeam
f 1//1 11//11 5//5
f 3//3 8//8 14//14
f 4//4 16//16 10//10
f 2//2 7//7 13//13
f 33//33 47//47 46//46
f 39//39 40//40 48//48
f 38//38 41//41 40//40
f 38//38 40//40 39//39
f 37//37 42//42 41//41
f 37//37 41//41 38//38
f 36//36 43//43 42//42
f 36//36 42//42 37//37
f 35//35 44//44 43//43
f 35//35 43//43 36//36
f 34//34 45//45 44//44
f 34//34 44//44 35//35
f 33//33 46//46 34//34
f 46//46 45//45 34//34
f 17//17 31//31 47//47
f 17//17 47//47 33//33
f 32//32 23//23 48//48
f 23//23 39//39 48//48
f 24//24 32//32 48//48
f 24//24 48//48 40//40
f 31//31 30//30 47//47
f 30//30 46//46 47//47
f 30//30 29//29 46//46
f 29//29 45//45 46//46
f 29//29 28//28 45//45
f 28//28 44//44 45//45
f 28//28 27//27 44//44
f 27//27 43//43 44//44
f 27//27 26//26 42//42
f 27//27 42//42 43//43
f 26//26 25//25 41//41
f 26//26 41//41 42//42
f 25//25 24//24 40//40
f 25//25 40//40 41//41
f 23//23 22//22 39//39
f 22//22 38//38 39//39
f 22//22 21//21 38//38
f 21//21 37//37 38//38
f 21//21 20//20 37//37
f 20//20 36//36 37//37
f 20//20 19//19 35//35
f 20//20 35//35 36//36
f 19//19 18//18 34//34
f 19//19 34//34 35//35
f 33//33 34//34 18//18
f 33//33 18//18 17//17
f 6//6 12//12 7//7
f 12//12 13//13 7//7
f 5//5 11//11 6//6
f 11//11 12//12 6//6
f 9//9 10//10 15//15
f 10//10 16//16 15//15
f 8//8 9//9 14//14
f 9//9 15//15 14//14
f 2//2 13//13 16//16
f 2//2 16//16 4//4
f 12//12 15//15 13//13
f 15//15 16//16 13//13
f 11//11 14//14 12//12
f 14//14 15//15 12//12
f 1//1 3//3 14//14
f 1//1 14//14 11//11
usemtl naowhite
f 105//105 107//107 106//106
f 87//87 88//88 89//89
f 116//116 117//117 118//118
f 98//98 100//100 99//99
f 124//124 103//103 95//95
f 124//124 95//95 127//127
f 123//123 124//124 126//126
f 124//124 127//127 126//126
f 122//122 123//123 125//125
f 123//123 126//126 125//125
f 92//92 122//122 93//93
f 122//122 125//125 93//93
f 133//133 113//113 130//130
f 113//113 121//121 130//130
f 132//132 133//133 130//130
f 132//132 130//130 129//129
f 131//131 132//132 129//129
f 131//131 129//129 128//128
f 111//111 131//131 128//128
f 111//111 128//128 110//110
f 131//131 111//111 93//93
f 131//131 93//93 125//125
f 132//132 131//131 126//126
f 131//131 125//125 126//126
f 133//133 132//132 127//127
f 132//132 126//126 127//127
f 113//113 133//133 95//95
f 133//133 127//127 95//95
f 122//122 92//92 128//128
f 92//92 110//110 128//128
f 123//123 122//122 128//128
f 123//123 128//128 129//129
f 124//124 123//123 129//129
f 124//124 129//129 130//130
f 103//103 124//124 121//121
f 124//124 130//130 121//121
f 97//97 101//101 100//100
f 97//97 100//100 98//98
f 96//96 102//102 101//101
f 96//96 101//101 97//97
f 115//115 116//116 118//118
f 115//115 118//118 119//119
f 114//114 115//115 120//120
f 115//115 119//119 120//120
f 95//95 103//103 102//102
f 95//95 102//102 96//96
f 113//113 114//114 120//120
f 113//113 120//120 121//121
f 91//91 92//92 93//93
f 91//91 93//93 94//94
f 109//109 112//112 111//111
f 109//109 111//111 110//110
f 86//86 90//90 94//94
f 90//90 91//91 94//94
f 104//104 112//112 108//108
f 112//112 109//109 108//108
f 86//86 87//87 89//89
f 86//86 89//89 90//90
f 104//104 108//108 107//107
f 104//104 107//107 105//105
f 102//102 103//103 121//121
f 102//102 121//121 120//120
f 101//101 102//102 120//120
f 101//101 120//120 119//119
f 100//100 101//101 119//119
f 100//100 119//119 118//118
f 99//99 100//100 118//118
f 99//99 118//118 117//117
f 98//98 99//99 116//116
f 99//99 117//117 116//116
f 97//97 98//98 116//116
f 97//97 116//116 115//115
f 96//96 97//97 115//115
f 96//96 115//115 114//114
f 95//95 96//96 113//113
f 96//96 114//114 113//113
f 104//104 86//86 94//94
f 104//104 94//94 112//112
f 94//94 93//93 112//112
f 93//93 111//111 112//112
f 92//92 91//91 109//109
f 92//92 109//109 110//110
f 91//91 90//90 109//109
f 90//90 108//108 109//109
f 90//90 89//89 108//108
f 89//89 107//107 108//108
f 89//89 88//88 107//107
f 88//88 106//106 107//107
f 88//88 87//87 106//106
f 87//87 105//105 106//106
f 87//87 86//86 105//105
f 86//86 104//104 105//105
f 85//85 56//56 57//57
f 63//63 50//50 49//49
f 64//64 63//63 49//49
f 85//85 57//57 70//70
f 85//85 70//70 71//71
f 77//77 64//64 49//49
f 78//78 77//77 49//49
f 85//85 71//71 84//84
f 80//80 82//82 81//81
f 79//79 83//83 82//82
f 79//79 82//82 80//80
f 78//78 84//84 83//83
f 78//78 83//83 79//79
f 49//49 85//85 84//84
f 49//49 84//84 78//78
f 71//71 72//72 83//83
f 71//71 83//83 84//84
f 72//72 73//73 82//82
f 72//72 82//82 83//83
f 73//73 74//74 81//81
f 73//73 81//81 82//82
f 74//74 75//75 80//80
f 74//74 80//80 81//81
f 75//75 76//76 79//79
f 75//75 79//79 80//80
f 76//76 77//77 79//79
f 77//77 78//78 79//79
f 65//65 64//64 76//76
f 64//64 77//77 76//76
f 66//66 65//65 76//76
f 66//66 76//76 75//75
f 67//67 66//66 75//75
f 67//67 75//75 74//74
f 68//68 67//67 74//74
f 68//68 74//74 73//73
f 69//69 68//68 73//73
f 69//69 73//73 72//72
f 70//70 69//69 72//72
f 70//70 72//72 71//71
f 57//57 58//58 70//70
f 58//58 69//69 70//70
f 58//58 59//59 69//69
f 59//59 68//68 69//69
f 59//59 60//60 68//68
f 60//60 67//67 68//68
f 60//60 61//61 67//67
f 61//61 66//66 67//67
f 61//61 62//62 65//65
f 61//61 65//65 66//66
f 62//62 63//63 64//64
f 62//62 64//64 65//65
f 51//51 50//50 63//63
f 51//51 63//63 62//62
f 52//52 51//51 61//61
f 51//51 62//62 61//61
f 53//53 52//52 60//60
f 52//52 61//61 60//60
f 54//54 53//53 59//59
f 53//53 60//60 59//59
f 55//55 54//54 58//58
f 54//54 59//59 58//58
f 56//56 55//55 57//57
f 55//55 58//58 57//57
