# Mvds OBJ File:
# www.martenvdsanden.net/mvds
mtllib nao.mtl
o this_is_here_because_of_a_bug_in_simsaprk
v -0.043999 -0.0299992 0.044001
v -0.0440008 -0.0209891 -0.043999
v -0.0439997 -0.0499994 0.0440008
v -0.0440018 -0.0499994 -0.0439992
v -0.0354186 -0.0209893 0.0220009
v -0.0354191 -0.0209893 8.79169e-07
v -0.0354197 -0.0209893 -0.0219991
v -0.0354195 -0.0499996 0.0220006
v -0.0354201 -0.0499996 6.33299e-07
v -0.0354206 -0.0499996 -0.0219994
v -0.0439994 -0.0209891 0.0220008
v -0.0439999 -0.0209891 7.99075e-07
v -0.0440004 -0.0209891 -0.0219992
v -0.0440003 -0.0499994 0.0220006
v -0.0440008 -0.0499994 6.37025e-07
v -0.0440013 -0.0499994 -0.0219994
v -0.0403214 -0.0302357 0.053281
v -0.0308602 -0.0302358 0.0674402
v -0.0167007 -0.030236 0.0769009
v 1.44264e-06 -0.0302362 0.0802229
v 0.0167036 -0.0302363 0.0769003
v 0.030863 -0.0302365 0.067439
v 0.0403238 -0.0302366 0.0532794
v 0.0403238 -0.0238449 0.0520081
v 0.030863 -0.0184262 0.0650899
v 0.0167036 -0.0148055 0.073831
v 1.44118e-06 -0.013534 0.0769008
v -0.0167007 -0.0148052 0.0738317
v -0.0308602 -0.0184256 0.0650911
v -0.0403214 -0.023844 0.0520096
v -0.0436438 -0.0302356 0.0365788
v 0.0436459 -0.0302366 0.0365772
v -0.0403213 -0.0302357 0.0606305
v -0.0308601 -0.0302358 0.0747898
v -0.0167006 -0.030236 0.0842505
v 1.60264e-06 -0.0302362 0.0875724
v 0.0167038 -0.0302363 0.0842498
v 0.030863 -0.0302365 0.0747886
v 0.0403239 -0.0302366 0.060629
v 0.0403239 -0.0238449 0.0593577
v 0.030863 -0.0184262 0.0724395
v 0.0167038 -0.0148055 0.0811806
v 1.60118e-06 -0.013534 0.0842503
v -0.0167006 -0.0148052 0.0811813
v -0.0308601 -0.0184256 0.0724406
v -0.0403213 -0.023844 0.0593592
v -0.0436437 -0.0302356 0.0439284
v 0.0436461 -0.0302366 0.0439267
v -0.0436446 -0.0305058 0.0368272
v -0.0403222 -0.0305058 0.0535293
v -0.030861 -0.0305059 0.0676885
v -0.0167015 -0.0305062 0.0771493
v 6.42667e-07 -0.0305063 0.0804712
v 0.0167028 -0.0305065 0.0771486
v 0.0308622 -0.0305066 0.0676874
v 0.040323 -0.0305067 0.0535278
v 0.040323 -0.024115 0.0522565
v 0.0308622 -0.0186964 0.0653383
v 0.0167028 -0.0150757 0.0740794
v 6.41207e-07 -0.0138042 0.0771491
v -0.0167015 -0.0150753 0.0740801
v -0.030861 -0.0186957 0.0653394
v -0.0403222 -0.0241142 0.052258
v -0.0403222 -0.0186956 0.0486374
v -0.0308611 -0.0086835 0.0586496
v -0.0167016 -0.00199369 0.0653394
v 6.39969e-07 0.000355303 0.0676882
v 0.0167027 -0.0019941 0.0653387
v 0.0308621 -0.00868419 0.0586484
v 0.040323 -0.0186965 0.0486359
v 0.040323 -0.0150759 0.0432174
v 0.030862 -0.0019942 0.0486363
v 0.0167026 0.0067468 0.0522572
v 4.79142e-07 0.0098163 0.053529
v -0.0167017 0.0067472 0.0522578
v -0.0308612 -0.0019935 0.0486374
v -0.0403222 -0.015075 0.0432189
v -0.0403223 -0.0138036 0.0368273
v -0.0308613 0.000355701 0.0368273
v -0.0167018 0.0098166 0.0368271
v 3.18851e-07 0.0131386 0.0368268
v 0.0167025 0.0098162 0.0368265
v 0.0308619 0.000355007 0.0368261
v 0.0403229 -0.0138045 0.0368258
v 0.0436451 -0.0305067 0.0368255
v 0.0311145 -0.0300006 0.075112
v 0.0168401 -0.0300003 0.0846503
v 2.08262e-06 -0.03 0.088
v -0.0168361 -0.0299997 0.0846511
v -0.031111 -0.0299994 0.0751134
v -0.0406493 -0.0299993 0.060839
v -0.043999 -0.0299992 0.044001
v 0.044001 -0.0300008 0.043999
v 0.0406521 -0.0300007 0.0608371
v 0.0439992 -0.0209907 -0.044001
v 0.0406495 -0.0209906 -0.060839
v 0.0311112 -0.0209905 -0.0751134
v 0.0168363 -0.0209902 -0.0846511
v -2.07738e-06 -0.03 -0.088
v -0.0168398 -0.0209896 -0.0846503
v -0.0311142 -0.0209894 -0.075112
v -0.0406519 -0.0209892 -0.0608371
v -0.0440008 -0.0209891 -0.043999
v 0.0311138 -0.0500007 0.0751118
v 0.0168394 -0.0500005 0.0846501
v 1.36437e-06 -0.0500002 0.0879998
v -0.0168368 -0.0499998 0.0846509
v -0.0311117 -0.0499996 0.0751132
v -0.04065 -0.0499994 0.0608388
v -0.0439997 -0.0499994 0.0440008
v 0.0440003 -0.050001 0.0439988
v 0.0406514 -0.0500009 0.060837
v 0.0439982 -0.050001 -0.0440012
v 0.0406486 -0.0500009 -0.0608392
v 0.0311102 -0.0500007 -0.0751136
v 0.0168354 -0.0500005 -0.0846513
v -2.79563e-06 -0.0500002 -0.0880002
v -0.0168408 -0.0499998 -0.0846506
v -0.0311152 -0.0499996 -0.0751122
v -0.0406528 -0.0499994 -0.0608374
v -0.0440018 -0.0499994 -0.0439992
v -0.0354186 -0.0209893 0.0220009
v -0.0354191 -0.0209893 8.79169e-07
v -0.0354197 -0.0209893 -0.0219991
v 0.0440007 -0.0209907 0.021999
v 0.0440002 -0.0209907 -1.04122e-06
v 0.0439997 -0.0209907 -0.022001
v -0.0354195 -0.0499996 0.0220006
v -0.0354201 -0.0499996 6.33299e-07
v -0.0354206 -0.0499996 -0.0219994
v 0.0439998 -0.050001 0.0219988
v 0.0439993 -0.050001 -1.20327e-06
v 0.0439988 -0.050001 -0.0220012
vn -0.894411 0.413877 0.169516
vn -0.894413 0.447241 1.80609e-05
vn -0.707127 -0.707086 1.92778e-05
vn -0.707127 -0.707087 1.60451e-05
vn 2.01833e-05 0.981173 0.193133
vn 2.32266e-05 1 -8.52284e-08
vn 2.34439e-05 1 -2.87581e-08
vn -2.30096e-05 -1 -1.68704e-07
vn -2.21414e-05 -1 5.36157e-10
vn -2.19968e-05 -1 1.13389e-07
vn -0.561157 0.820848 0.106356
vn -0.707088 0.707126 1.60441e-05
vn -0.832034 0.554724 1.77286e-05
vn -0.800017 -0.599977 2.06198e-05
vn -0.707125 -0.707088 1.62445e-05
vn -0.832066 -0.554676 1.76589e-05
vn -2.21302e-05 -1 -5.06582e-07
vn -1.08047e-05 -1 -1.0136e-06
vn -1.29663e-05 -1 3.3809e-07
vn -9.08362e-06 -1 2.53618e-07
vn -1.14151e-05 -1 3.38101e-07
vn -1.16075e-05 -1 5.06919e-07
vn -4.61661e-06 -1 -5.06804e-07
vn 0.785413 0.618973 -1.47891e-05
vn 0.41728 0.908778 -2.76352e-06
vn 0.191106 0.981569 -3.26389e-06
vn 8.6602e-06 1 -1.19939e-08
vn -0.191088 0.981573 1.87272e-06
vn -0.417258 0.908788 5.49919e-06
vn -0.785419 0.618964 1.04351e-05
vn -0.854758 -0.519027 1.19609e-05
vn 0.854759 -0.519026 -2.40922e-05
vn -0.52254 -0.824769 0.21612
vn -0.598267 -0.534038 0.597394
vn -0.245127 -0.646053 0.722861
vn 0.0593631 -0.441865 0.895115
vn 0.337059 -0.649697 0.681385
vn 0.560893 -0.666949 0.490488
vn 0.52253 -0.824778 0.216112
vn 0.851676 0.463201 0.245136
vn 0.597375 0.664252 0.449347
vn 0.286167 0.754647 0.590438
vn -0.0494606 0.663782 0.746289
vn -0.36185 0.746544 0.558334
vn -0.574693 0.747441 0.333256
vn -0.851667 0.463209 0.245156
vn -0.933632 -0.352085 0.0660817
vn 0.933636 -0.352081 0.0660588
vn -0.927895 0.120583 -0.352805
vn -0.921418 0.0758028 0.381107
vn -0.700731 0.139176 0.699719
vn -0.315585 0.185111 0.930667
vn 0.0649139 0.194669 0.978719
vn 0.436507 0.175514 0.882415
vn 0.746408 0.129825 0.652703
vn 0.921429 0.0757971 0.381082
vn 0.907927 0.139408 0.395264
vn 0.70761 0.261927 0.656264
vn 0.383172 0.348949 0.855227
vn 2.25046e-05 0.382675 0.923883
vn -0.409051 0.37518 0.831816
vn -0.734939 0.280219 0.617528
vn -0.907915 0.139416 0.395288
vn -0.896741 0.31293 0.312937
vn -0.678569 0.495099 0.542605
vn -0.419299 0.665361 0.617643
vn -0.0661356 0.705554 0.705564
vn 0.321174 0.669641 0.669648
vn 0.65928 0.531672 0.531671
vn 0.89675 0.312922 0.31292
vn 0.907924 0.395271 0.139407
vn 0.707607 0.656267 0.261928
vn 0.383169 0.855226 0.348956
vn 1.82839e-05 0.923878 0.382687
vn -0.38314 0.851494 0.357997
vn -0.706848 0.634177 0.313347
vn -0.907918 0.395278 0.139425
vn -0.522548 0.216126 -0.824763
vn -0.598276 0.597394 -0.534028
vn -0.287077 0.84655 -0.448263
vn 0.0654628 0.987194 -0.14547
vn 0.337048 0.681394 -0.649693
vn 0.560884 0.490499 -0.666948
vn 0.522519 0.216124 -0.824782
vn 0.984112 0.127879 -0.123166
vn 0.527417 0.713148 0.461792
vn 0.366632 0.561297 0.741975
vn 0.0626827 0.321144 0.944954
vn -0.224797 0.713167 0.663972
vn -0.461774 0.713174 0.527398
vn -0.628447 0.713179 0.31053
vn -0.893154 0.449641 0.00993126
vn 0.702083 0.68241 0.203461
vn 0.505623 0.836953 0.209414
vn 0.597093 0.801219 -0.0390926
vn 0.663977 0.713149 -0.224842
vn 0.527391 0.713153 -0.461813
vn 0.323044 0.33349 -0.885679
vn -2.06686e-05 0.0715109 -0.99744
vn -0.203265 0.63591 -0.744515
vn -0.461796 0.713178 -0.527372
vn -0.733886 0.607465 -0.303971
vn -0.808577 0.56864 0.151169
vn 0.461794 -0.71318 0.527371
vn 0.265437 -0.561329 0.78387
vn -0.0626384 -0.321163 0.94495
vn -0.310519 -0.713161 0.628473
vn -0.527391 -0.713152 0.461814
vn -0.663977 -0.713148 0.224843
vn -0.689853 -0.721402 -0.0606831
vn 0.443325 -0.895297 0.0436564
vn 0.733885 -0.607466 0.303969
vn 0.593206 -0.801246 -0.0781708
vn 0.741956 -0.561332 -0.366618
vn 0.390884 -0.804925 -0.446436
vn 0.265402 -0.561319 -0.783889
vn -2.8283e-05 -0.454177 -0.890912
vn -0.30402 -0.607433 -0.733892
vn -0.622667 -0.561292 -0.545195
vn -0.406806 -0.897842 -0.168489
vn -0.822583 -0.568594 -0.00760611
vn -0.557271 0.822486 0.113864
vn -0.707089 0.707125 1.81594e-05
vn -0.589542 0.804424 0.0730881
vn 0.561199 0.820823 0.106329
vn 0.707124 0.70709 -1.60849e-05
vn 0.832065 0.554678 -1.90912e-05
vn -0.78127 -0.60665 -0.146946
vn -0.707125 -0.707089 1.82002e-05
vn -0.57583 -0.804398 0.146162
vn 0.799984 -0.600021 -1.88814e-05
vn 0.70709 -0.707124 -1.6124e-05
vn 0.832035 -0.554723 -2.01942e-05
o this_is_here_because_of_a_bug_in_simsaprk
o this_is_here_because_of_a_bug_in_simsaprk
o foot_Sphere.003
s on
usemtl matTeam
f 1//1 5//5 11//11
f 3//3 14//14 8//8
f 4//4 10//10 16//16
f 2//2 13//13 7//7
f 33//33 46//46 47//47
f 39//39 48//48 40//40
f 38//38 39//39 40//40
f 38//38 40//40 41//41
f 37//37 38//38 41//41
f 37//37 41//41 42//42
f 36//36 37//37 42//42
f 36//36 42//42 43//43
f 35//35 36//36 43//43
f 35//35 43//43 44//44
f 34//34 35//35 44//44
f 34//34 44//44 45//45
f 33//33 34//34 46//46
f 34//34 45//45 46//46
f 17//17 33//33 47//47
f 17//17 47//47 31//31
f 32//32 48//48 23//23
f 48//48 39//39 23//23
f 24//24 40//40 48//48
f 24//24 48//48 32//32
f 31//31 47//47 30//30
f 47//47 46//46 30//30
f 30//30 46//46 29//29
f 46//46 45//45 29//29
f 29//29 45//45 28//28
f 45//45 44//44 28//28
f 28//28 44//44 27//27
f 44//44 43//43 27//27
f 27//27 43//43 42//42
f 27//27 42//42 26//26
f 26//26 42//42 41//41
f 26//26 41//41 25//25
f 25//25 41//41 40//40
f 25//25 40//40 24//24
f 23//23 39//39 22//22
f 39//39 38//38 22//22
f 22//22 38//38 21//21
f 38//38 37//37 21//21
f 21//21 37//37 20//20
f 37//37 36//36 20//20
f 20//20 36//36 35//35
f 20//20 35//35 19//19
f 19//19 35//35 34//34
f 19//19 34//34 18//18
f 33//33 17//17 18//18
f 33//33 18//18 34//34
f 6//6 7//7 12//12
f 7//7 13//13 12//12
f 5//5 6//6 11//11
f 6//6 12//12 11//11
f 9//9 15//15 10//10
f 15//15 16//16 10//10
f 8//8 14//14 9//9
f 14//14 15//15 9//9
f 2//2 4//4 16//16
f 2//2 16//16 13//13
f 12//12 13//13 15//15
f 13//13 16//16 15//15
f 11//11 12//12 14//14
f 12//12 15//15 14//14
f 1//1 11//11 14//14
f 1//1 14//14 3//3
usemtl naowhite
f 105//105 106//106 107//107
f 87//87 89//89 88//88
f 116//116 118//118 117//117
f 98//98 99//99 100//100
f 124//124 127//127 95//95
f 124//124 95//95 103//103
f 123//123 126//126 124//124
f 126//126 127//127 124//124
f 122//122 125//125 123//123
f 125//125 126//126 123//123
f 92//92 93//93 122//122
f 93//93 125//125 122//122
f 133//133 130//130 113//113
f 130//130 121//121 113//113
f 132//132 129//129 130//130
f 132//132 130//130 133//133
f 131//131 128//128 129//129
f 131//131 129//129 132//132
f 111//111 110//110 128//128
f 111//111 128//128 131//131
f 131//131 125//125 93//93
f 131//131 93//93 111//111
f 132//132 126//126 131//131
f 126//126 125//125 131//131
f 133//133 127//127 132//132
f 127//127 126//126 132//132
f 113//113 95//95 133//133
f 95//95 127//127 133//133
f 122//122 128//128 92//92
f 128//128 110//110 92//92
f 123//123 129//129 128//128
f 123//123 128//128 122//122
f 124//124 130//130 129//129
f 124//124 129//129 123//123
f 103//103 121//121 130//130
f 103//103 130//130 124//124
f 97//97 98//98 100//100
f 97//97 100//100 101//101
f 96//96 97//97 101//101
f 96//96 101//101 102//102
f 115//115 119//119 118//118
f 115//115 118//118 116//116
f 114//114 120//120 115//115
f 120//120 119//119 115//115
f 95//95 96//96 102//102
f 95//95 102//102 103//103
f 113//113 121//121 120//120
f 113//113 120//120 114//114
f 91//91 94//94 93//93
f 91//91 93//93 92//92
f 109//109 110//110 111//111
f 109//109 111//111 112//112
f 86//86 94//94 90//90
f 94//94 91//91 90//90
f 104//104 108//108 112//112
f 108//108 109//109 112//112
f 86//86 90//90 89//89
f 86//86 89//89 87//87
f 104//104 105//105 107//107
f 104//104 107//107 108//108
f 102//102 120//120 121//121
f 102//102 121//121 103//103
f 101//101 119//119 102//102
f 119//119 120//120 102//102
f 100//100 118//118 101//101
f 118//118 119//119 101//101
f 99//99 117//117 118//118
f 99//99 118//118 100//100
f 98//98 116//116 99//99
f 116//116 117//117 99//99
f 97//97 115//115 98//98
f 115//115 116//116 98//98
f 96//96 114//114 97//97
f 114//114 115//115 97//97
f 95//95 113//113 96//96
f 113//113 114//114 96//96
f 104//104 112//112 86//86
f 112//112 94//94 86//86
f 94//94 112//112 93//93
f 112//112 111//111 93//93
f 92//92 110//110 109//109
f 92//92 109//109 91//91
f 91//91 109//109 108//108
f 91//91 108//108 90//90
f 90//90 108//108 107//107
f 90//90 107//107 89//89
f 89//89 107//107 106//106
f 89//89 106//106 88//88
f 88//88 106//106 105//105
f 88//88 105//105 87//87
f 87//87 105//105 104//104
f 87//87 104//104 86//86
f 85//85 57//57 56//56
f 63//63 49//49 50//50
f 64//64 49//49 63//63
f 85//85 70//70 57//57
f 85//85 71//71 70//70
f 77//77 49//49 64//64
f 78//78 49//49 77//77
f 85//85 84//84 71//71
f 80//80 81//81 82//82
f 79//79 80//80 82//82
f 79//79 82//82 83//83
f 78//78 79//79 83//83
f 78//78 83//83 84//84
f 49//49 78//78 84//84
f 49//49 84//84 85//85
f 71//71 84//84 83//83
f 71//71 83//83 72//72
f 72//72 83//83 82//82
f 72//72 82//82 73//73
f 73//73 82//82 81//81
f 73//73 81//81 74//74
f 74//74 81//81 80//80
f 74//74 80//80 75//75
f 75//75 80//80 79//79
f 75//75 79//79 76//76
f 76//76 79//79 77//77
f 79//79 78//78 77//77
f 65//65 76//76 64//64
f 76//76 77//77 64//64
f 66//66 75//75 76//76
f 66//66 76//76 65//65
f 67//67 74//74 75//75
f 67//67 75//75 66//66
f 68//68 73//73 74//74
f 68//68 74//74 67//67
f 69//69 72//72 73//73
f 69//69 73//73 68//68
f 70//70 71//71 72//72
f 70//70 72//72 69//69
f 57//57 70//70 58//58
f 70//70 69//69 58//58
f 58//58 69//69 59//59
f 69//69 68//68 59//59
f 59//59 68//68 60//60
f 68//68 67//67 60//60
f 60//60 67//67 61//61
f 67//67 66//66 61//61
f 61//61 66//66 65//65
f 61//61 65//65 62//62
f 62//62 65//65 64//64
f 62//62 64//64 63//63
f 51//51 62//62 63//63
f 51//51 63//63 50//50
f 52//52 61//61 51//51
f 61//61 62//62 51//51
f 53//53 60//60 52//52
f 60//60 61//61 52//52
f 54//54 59//59 53//53
f 59//59 60//60 53//53
f 55//55 58//58 54//54
f 58//58 59//59 54//54
f 56//56 57//57 55//55
f 57//57 58//58 55//55
