# Blender3D v245 OBJ File: lfoot.blend
# www.blender3d.org
mtllib nao.mtl
o foot.002_Sphere.002
v -0.549998 0.550002 -0.000003
v -0.550002 -0.549998 0.112624
v -0.549995 0.550002 -0.250002
v -0.550000 -0.549998 -0.250002
v -0.442741 0.275002 0.112624
v -0.442742 0.000002 0.112624
v -0.442743 -0.274998 0.112624
v -0.442738 0.275002 -0.250002
v -0.442740 0.000002 -0.250002
v -0.442741 -0.274998 -0.250002
v -0.550000 0.275000 0.112624
v -0.550001 -0.000000 0.112624
v -0.550002 -0.275000 0.112624
v -0.549998 0.275000 -0.250002
v -0.549999 -0.000000 -0.250002
v -0.550000 -0.275000 -0.250002
v -0.504030 0.666002 -0.002957
v -0.385769 0.842995 -0.002956
v -0.208777 0.961257 -0.002954
v -0.000001 1.002786 -0.002952
v 0.208777 0.961258 -0.002950
v 0.385771 0.842995 -0.002947
v 0.504035 0.666002 -0.002946
v 0.504034 0.650111 0.076950
v 0.385768 0.813632 0.144681
v 0.208773 0.922892 0.189935
v -0.000005 0.961260 0.205825
v -0.208781 0.922892 0.189931
v -0.385772 0.813631 0.144672
v -0.504032 0.650111 0.076938
v -0.545556 0.457225 -0.002957
v 0.545565 0.457225 -0.002945
v -0.504030 0.757872 -0.002957
v -0.385769 0.934864 -0.002956
v -0.208777 1.053127 -0.002954
v -0.000001 1.094655 -0.002952
v 0.208777 1.053127 -0.002950
v 0.385771 0.934864 -0.002947
v 0.504035 0.757872 -0.002946
v 0.504034 0.741981 0.076950
v 0.385768 0.905501 0.144681
v 0.208773 1.014762 0.189935
v -0.000005 1.053129 0.205825
v -0.208781 1.014762 0.189931
v -0.385772 0.905501 0.144672
v -0.504031 0.741980 0.076938
v -0.545556 0.549094 -0.002957
v 0.545565 0.549095 -0.002945
v -0.545566 0.460329 -0.006334
v -0.504040 0.669106 -0.006334
v -0.385779 0.846099 -0.006333
v -0.208787 0.964362 -0.006331
v -0.000011 1.005890 -0.006329
v 0.208767 0.964362 -0.006327
v 0.385761 0.846099 -0.006324
v 0.504025 0.669106 -0.006322
v 0.504024 0.653215 0.073573
v 0.385758 0.816736 0.141304
v 0.208763 0.925997 0.186559
v -0.000015 0.964364 0.202448
v -0.208791 0.925997 0.186554
v -0.385782 0.816736 0.141295
v -0.504041 0.653215 0.073562
v -0.504042 0.607959 0.141294
v -0.385783 0.733113 0.266448
v -0.208793 0.816738 0.350074
v -0.000017 0.846103 0.379441
v 0.208761 0.816738 0.350079
v 0.385756 0.733113 0.266456
v 0.504023 0.607959 0.141305
v 0.504022 0.540227 0.186563
v 0.385756 0.607961 0.350081
v 0.208760 0.653219 0.459340
v -0.000018 0.669112 0.497704
v -0.208794 0.653219 0.459335
v -0.385784 0.607961 0.350072
v -0.504043 0.540227 0.186551
v -0.504042 0.460332 0.202444
v -0.385783 0.460334 0.379438
v -0.208793 0.460335 0.497702
v -0.000017 0.460335 0.539233
v 0.208761 0.460335 0.497707
v 0.385756 0.460334 0.379446
v 0.504023 0.460332 0.202455
v 0.545556 0.460329 -0.006322
v 0.388913 0.938907 0.000002
v 0.210481 1.058133 0.000001
v 0.000005 1.100000 0.000000
v -0.210471 1.058135 -0.000001
v -0.388905 0.938910 -0.000002
v -0.508130 0.760478 -0.000002
v -0.549998 0.550002 -0.000003
v 0.550002 0.549998 0.000003
v 0.508137 0.760474 0.000003
v 0.549998 -0.550002 0.112629
v 0.508130 -0.760478 0.112629
v 0.388905 -0.938910 0.112628
v 0.210471 -1.058135 0.112627
v -0.000005 -1.100000 -0.000000
v -0.210481 -1.058133 0.112625
v -0.388913 -0.938907 0.112624
v -0.508137 -0.760474 0.112624
v -0.550002 -0.549998 0.112624
v 0.388915 0.938906 -0.249997
v 0.210483 1.058132 -0.249998
v 0.000007 1.100000 -0.249999
v -0.210469 1.058134 -0.250000
v -0.388902 0.938910 -0.250001
v -0.508128 0.760478 -0.250002
v -0.549995 0.550002 -0.250002
v 0.550005 0.549997 -0.249997
v 0.508139 0.760474 -0.249997
v 0.550000 -0.550003 -0.249997
v 0.508133 -0.760478 -0.249997
v 0.388907 -0.938911 -0.249998
v 0.210474 -1.058135 -0.249998
v -0.000002 -1.100000 -0.250000
v -0.210478 -1.058133 -0.250001
v -0.388911 -0.938908 -0.250001
v -0.508135 -0.760474 -0.250002
v -0.550000 -0.549998 -0.250002
v -0.442741 0.275002 0.112624
v -0.442742 0.000002 0.112624
v -0.442743 -0.274998 0.112624
v 0.550001 0.274998 0.112629
v 0.550000 -0.000002 0.112629
v 0.549999 -0.275002 0.112629
v -0.442738 0.275002 -0.250002
v -0.442740 0.000002 -0.250002
v -0.442741 -0.274998 -0.250002
v 0.550004 0.274997 -0.249997
v 0.550002 -0.000003 -0.249997
v 0.550001 -0.275003 -0.249997
vn -0.707083 0.267983 0.654347
vn -0.631001 0.149144 0.761284
vn 0.000000 0.193121 0.981170
vn -0.707083 0.000000 -0.707083
vn 0.000000 0.000000 -1.000000
vn -0.707083 0.000000 0.707083
vn 0.000000 0.000000 1.000000
vn -0.705130 0.000000 0.709037
vn -0.737632 0.308054 -0.600787
vn -0.867214 0.082278 -0.491073
vn -0.855495 0.218360 0.469436
vn 0.737632 0.308084 -0.600757
vn 0.855495 0.218360 0.469466
vn 0.867214 0.082278 -0.491043
vn 0.578082 0.580157 -0.573748
vn 0.640492 0.440840 0.628803
vn 0.317484 0.768273 -0.555834
vn 0.345500 0.612049 0.711295
vn 0.000000 0.837031 -0.547105
vn 0.000000 0.673818 0.738853
vn -0.317454 0.768242 -0.555834
vn -0.344890 0.610492 0.712943
vn -0.578051 0.580157 -0.573748
vn -0.641377 0.442030 0.627033
vn -0.854732 0.000000 -0.519028
vn 0.854762 0.000000 -0.518998
vn 0.721335 0.000000 0.692557
vn -0.721366 0.000000 0.692496
vn -0.375774 0.000000 0.926695
vn -0.162420 0.000000 0.986694
vn -0.003723 0.000000 0.999969
vn 0.166143 0.000000 0.986084
vn 0.375744 0.000000 0.926695
vn -0.709037 0.000000 0.705130
vn -0.705130 0.000000 -0.709037
vn 0.296548 0.715903 -0.632069
vn -0.296426 0.717429 -0.630390
vn 0.000000 0.774895 -0.632069
vn 0.295877 0.714316 0.634175
vn -0.000671 0.776269 0.630360
vn -0.295206 0.712729 0.636250
vn 0.296518 -0.715903 -0.632069
vn 0.000000 -0.774895 -0.632069
vn -0.296518 -0.715903 -0.632069
vn 0.234535 -0.739982 0.630390
vn -0.234535 -0.739982 0.630390
vn 0.000000 -0.992706 0.120487
vn -0.758904 0.142735 0.635334
vn -0.791162 0.069613 0.607593
vn 0.742027 -0.072726 0.666372
vn 0.709037 0.000000 0.705130
vn 0.707083 0.000000 0.707083
vn -0.705313 0.007050 0.708823
vn 0.631001 0.149144 0.761284
vn -0.732658 0.066805 0.677297
vn 0.663839 0.206214 0.718833
vn 0.709037 0.000000 -0.705130
vn 0.743797 -0.073611 -0.664296
vn -0.757195 0.142430 -0.637440
vn -0.791162 0.069613 -0.607593
vn 0.707083 0.000000 -0.707083
vn 0.709067 0.000000 -0.705130
vn -0.760399 -0.142369 -0.633656
vn 0.742210 0.073092 -0.666128
vn -0.791162 -0.069613 -0.607593
vn 0.547929 -0.547929 0.632069
vn -0.546709 -0.546709 0.634144
vn 0.714255 -0.295114 0.634571
vn -0.712729 -0.295206 0.636250
vn 0.547929 -0.547929 -0.632069
vn -0.547929 -0.547929 -0.632069
vn 0.715903 -0.296518 -0.632038
vn -0.715903 -0.296518 -0.632069
vn -0.712729 0.295206 0.636250
vn 0.713736 0.296365 0.634571
vn -0.715903 0.296518 -0.632069
vn 0.715903 0.296518 -0.632038
vn 0.545488 0.545488 0.636250
vn -0.545488 0.545488 0.636250
vn 0.549394 0.548418 -0.630360
vn -0.547929 0.547929 -0.632069
vn 0.798395 -0.584094 0.146153
vn 0.921415 0.381085 0.075808
vn 0.913846 0.375103 0.155370
vn -0.913846 0.375103 0.155339
vn -0.921415 0.381085 0.075777
vn -0.798395 -0.584094 0.146123
vn -0.913846 0.287088 0.287057
vn 0.913846 0.287088 0.287118
vn 0.913846 0.155370 0.375134
vn -0.913846 0.155370 0.375072
vn -0.737632 -0.600787 0.308054
vn 0.739189 -0.598529 0.308756
vn -0.318094 -0.553362 0.769768
vn 0.318094 -0.553362 0.769768
vn 0.000000 -0.547105 0.837062
vn -0.579241 -0.571398 0.581317
vn 0.578051 -0.573748 0.580187
vn 0.696158 0.274697 0.663228
vn 0.376019 0.354595 0.856044
vn 0.000000 0.382672 0.923856
vn -0.376049 0.354595 0.856044
vn -0.696188 0.274697 0.663198
vn -0.696188 0.507584 0.507584
vn -0.376049 0.655202 0.655171
vn 0.000000 0.707083 0.707083
vn 0.376019 0.655202 0.655202
vn 0.696158 0.507584 0.507584
vn 0.696158 0.663198 0.274697
vn 0.376019 0.856044 0.354564
vn 0.000000 0.923856 0.382672
vn -0.376049 0.856044 0.354564
vn -0.696188 0.663198 0.274667
vn -0.700736 0.699698 0.139134
vn -0.376843 0.908475 0.180670
vn 0.000000 0.980773 0.195074
vn 0.376843 0.908475 0.180700
vn 0.700736 0.699698 0.139164
usemtl matTeam
s 1
f 1//1 11//2 5//3
f 3//4 8//5 14//4
f 4//4 16//4 10//5
f 2//6 7//7 13//8
f 33//9 47//10 46//11
f 39//12 40//13 48//14
f 38//15 41//16 40//13
f 38//15 40//13 39//12
f 37//17 42//18 41//16
f 37//17 41//16 38//15
f 36//19 43//20 42//18
f 36//19 42//18 37//17
f 35//21 44//22 43//20
f 35//21 43//20 36//19
f 34//23 45//24 44//22
f 34//23 44//22 35//21
f 33//9 46//11 34//23
f 46//11 45//24 34//23
f 17//5 31//25 47//10
f 17//5 47//10 33//9
f 32//26 23//5 48//14
f 23//5 39//12 48//14
f 24//27 32//26 48//14
f 24//27 48//14 40//13
f 31//25 30//28 47//10
f 30//28 46//11 47//10
f 30//28 29//29 46//11
f 29//29 45//24 46//11
f 29//29 28//30 45//24
f 28//30 44//22 45//24
f 28//30 27//31 44//22
f 27//31 43//20 44//22
f 27//31 26//32 42//18
f 27//31 42//18 43//20
f 26//32 25//33 41//16
f 26//32 41//16 42//18
f 25//33 24//27 40//13
f 25//33 40//13 41//16
f 23//5 22//5 39//12
f 22//5 38//15 39//12
f 22//5 21//5 38//15
f 21//5 37//17 38//15
f 21//5 20//5 37//17
f 20//5 36//19 37//17
f 20//5 19//5 35//21
f 20//5 35//21 36//19
f 19//5 18//5 34//23
f 19//5 34//23 35//21
f 33//9 34//23 18//5
f 33//9 18//5 17//5
f 6//7 12//34 7//7
f 12//34 13//8 7//7
f 5//3 11//2 6//7
f 11//2 12//34 6//7
f 9//5 10//5 15//35
f 10//5 16//4 15//35
f 8//5 9//5 14//4
f 9//5 15//35 14//4
f 2//6 13//8 16//4
f 2//6 16//4 4//4
f 12//34 15//35 13//8
f 15//35 16//4 13//8
f 11//2 14//4 12//34
f 14//4 15//35 12//34
f 1//1 3//4 14//4
f 1//1 14//4 11//2
usemtl naowhite
f 105//36 107//37 106//38
f 87//39 88//40 89//41
f 116//42 117//43 118//44
f 98//45 100//46 99//47
f 124//48 103//49 95//50
f 124//48 95//50 127//51
f 123//8 124//48 126//52
f 124//48 127//51 126//52
f 122//53 123//8 125//54
f 123//8 126//52 125//54
f 92//55 122//53 93//56
f 122//53 125//54 93//56
f 133//57 113//58 130//59
f 113//58 121//60 130//59
f 132//61 133//57 130//59
f 132//61 130//59 129//4
f 131//62 132//61 129//4
f 131//62 129//4 128//63
f 111//64 131//62 128//63
f 111//64 128//63 110//65
f 131//62 111//64 93//56
f 131//62 93//56 125//54
f 132//61 131//62 126//52
f 131//62 125//54 126//52
f 133//57 132//61 127//51
f 132//61 126//52 127//51
f 113//58 133//57 95//50
f 133//57 127//51 95//50
f 122//53 92//55 128//63
f 92//55 110//65 128//63
f 123//8 122//53 128//63
f 123//8 128//63 129//4
f 124//48 123//8 129//4
f 124//48 129//4 130//59
f 103//49 124//48 121//60
f 124//48 130//59 121//60
f 97//66 101//67 100//46
f 97//66 100//46 98//45
f 96//68 102//69 101//67
f 96//68 101//67 97//66
f 115//70 116//42 118//44
f 115//70 118//44 119//71
f 114//72 115//70 120//73
f 115//70 119//71 120//73
f 95//50 103//49 102//69
f 95//50 102//69 96//68
f 113//58 114//72 120//73
f 113//58 120//73 121//60
f 91//74 92//55 93//56
f 91//74 93//56 94//75
f 109//76 112//77 111//64
f 109//76 111//64 110//65
f 86//78 90//79 94//75
f 90//79 91//74 94//75
f 104//80 112//77 108//81
f 112//77 109//76 108//81
f 86//78 87//39 89//41
f 86//78 89//41 90//79
f 104//80 108//81 107//37
f 104//80 107//37 105//36
f 102//69 103//49 121//60
f 102//69 121//60 120//73
f 101//67 102//69 120//73
f 101//67 120//73 119//71
f 100//46 101//67 119//71
f 100//46 119//71 118//44
f 99//47 100//46 118//44
f 99//47 118//44 117//43
f 98//45 99//47 116//42
f 99//47 117//43 116//42
f 97//66 98//45 116//42
f 97//66 116//42 115//70
f 96//68 97//66 115//70
f 96//68 115//70 114//72
f 95//50 96//68 113//58
f 96//68 114//72 113//58
f 104//80 86//78 94//75
f 104//80 94//75 112//77
f 94//75 93//56 112//77
f 93//56 111//64 112//77
f 92//55 91//74 109//76
f 92//55 109//76 110//65
f 91//74 90//79 109//76
f 90//79 108//81 109//76
f 90//79 89//41 108//81
f 89//41 107//37 108//81
f 89//41 88//40 107//37
f 88//40 106//38 107//37
f 88//40 87//39 106//38
f 87//39 105//36 106//38
f 87//39 86//78 105//36
f 86//78 104//80 105//36
f 85//82 56//83 57//84
f 63//85 50//86 49//87
f 64//88 63//85 49//87
f 85//82 57//84 70//89
f 85//82 70//89 71//90
f 77//91 64//88 49//87
f 78//92 77//91 49//87
f 85//82 71//90 84//93
f 80//94 82//95 81//96
f 79//97 83//98 82//95
f 79//97 82//95 80//94
f 78//92 84//93 83//98
f 78//92 83//98 79//97
f 49//87 85//82 84//93
f 49//87 84//93 78//92
f 71//90 72//99 83//98
f 71//90 83//98 84//93
f 72//99 73//100 82//95
f 72//99 82//95 83//98
f 73//100 74//101 81//96
f 73//100 81//96 82//95
f 74//101 75//102 80//94
f 74//101 80//94 81//96
f 75//102 76//103 79//97
f 75//102 79//97 80//94
f 76//103 77//91 79//97
f 77//91 78//92 79//97
f 65//104 64//88 76//103
f 64//88 77//91 76//103
f 66//105 65//104 76//103
f 66//105 76//103 75//102
f 67//106 66//105 75//102
f 67//106 75//102 74//101
f 68//107 67//106 74//101
f 68//107 74//101 73//100
f 69//108 68//107 73//100
f 69//108 73//100 72//99
f 70//89 69//108 72//99
f 70//89 72//99 71//90
f 57//84 58//109 70//89
f 58//109 69//108 70//89
f 58//109 59//110 69//108
f 59//110 68//107 69//108
f 59//110 60//111 68//107
f 60//111 67//106 68//107
f 60//111 61//112 67//106
f 61//112 66//105 67//106
f 61//112 62//113 65//104
f 61//112 65//104 66//105
f 62//113 63//85 64//88
f 62//113 64//88 65//104
f 51//114 50//86 63//85
f 51//114 63//85 62//113
f 52//115 51//114 61//112
f 51//114 62//113 61//112
f 53//116 52//115 60//111
f 52//115 61//112 60//111
f 54//117 53//116 59//110
f 53//116 60//111 59//110
f 55//118 54//117 58//109
f 54//117 59//110 58//109
f 56//83 55//118 57//84
f 55//118 58//109 57//84
