# Blender3D v249 OBJ File: 
# www.blender3d.org
mtllib leftgoal.mtl
o Cylinder
v -0.466661 -0.000000 -0.006727
v -0.435928 0.000000 0.031272
v -0.439036 0.000000 0.048194
v 0.469231 0.001554 -0.881690
v 0.467925 1.000000 -0.096621
v 0.467925 0.000247 -0.096621
v -0.463784 0.001554 -0.895139
v -0.465090 0.000247 -0.110069
v -0.465090 1.000000 -0.110069
v -0.463784 0.001554 -0.895139
v -0.465090 1.000000 -0.110069
v -0.465090 0.000247 -0.110069
v 0.469231 0.001554 -0.881690
v 0.467925 0.000247 -0.096621
v 0.467925 1.000000 -0.096621
v 0.469231 0.001554 -0.881690
v 0.467925 1.000000 -0.096621
v -0.465090 1.000000 -0.110069
v -0.463784 0.001554 -0.895139
v 0.469231 0.001554 -0.881690
v 0.467925 1.000000 -0.096621
v 0.466661 0.000000 0.006727
v 0.490346 -0.000000 -0.062326
v 0.494467 -0.000000 -0.047393
v 0.466661 0.997179 0.006727
v 0.494467 0.997179 -0.047393
v 0.490346 0.997179 -0.062326
v 0.497519 -0.000000 -0.030383
v 0.497519 0.997179 -0.030383
v 0.499385 -0.000000 -0.011947
v 0.499385 0.997179 -0.011947
v 0.499994 0.000000 0.007207
v 0.499994 0.997179 0.007207
v 0.499322 0.000000 0.026343
v 0.499322 0.997179 0.026343
v 0.497394 0.000000 0.044726
v 0.497394 0.997179 0.044726
v 0.494286 0.000000 0.061645
v 0.494286 0.997179 0.061645
v 0.490116 0.000000 0.076457
v 0.490116 0.997179 0.076457
v 0.485044 0.000000 0.088589
v 0.485044 0.997179 0.088589
v 0.479266 0.000000 0.097575
v 0.479266 0.997179 0.097575
v 0.473004 0.000000 0.103068
v 0.473004 0.997179 0.103068
v 0.466498 0.000000 0.104861
v 0.466498 0.997179 0.104861
v 0.459998 0.000000 0.102880
v 0.459998 0.997179 0.102880
v 0.453754 0.000000 0.097207
v 0.453754 0.997179 0.097207
v 0.448007 0.000000 0.088054
v 0.448007 0.997179 0.088057
v 0.442976 0.000000 0.075777
v 0.442976 0.997179 0.075777
v 0.438855 0.000000 0.060848
v 0.438855 0.997179 0.060848
v 0.435803 0.000000 0.043837
v 0.435803 0.997179 0.043837
v 0.433937 0.000000 0.025401
v 0.433937 0.997179 0.025401
v 0.433328 0.000000 0.006247
v 0.433328 0.997179 0.006247
v 0.434000 -0.000000 -0.012889
v 0.434000 0.997179 -0.012889
v 0.435928 -0.000000 -0.031272
v 0.435928 0.997179 -0.031272
v 0.439036 -0.000000 -0.048194
v 0.439036 0.997179 -0.048194
v 0.443207 -0.000000 -0.063006
v 0.443206 0.997179 -0.063003
v 0.448278 -0.000000 -0.075135
v 0.448278 0.997179 -0.075135
v 0.454056 -0.000000 -0.084120
v 0.454056 0.997179 -0.084120
v 0.460318 -0.000000 -0.089614
v 0.460318 0.997179 -0.089614
v 0.466824 -0.000000 -0.091407
v 0.466824 0.997179 -0.091407
v 0.473324 -0.000000 -0.089428
v 0.473324 0.997179 -0.089429
v 0.479568 -0.000000 -0.083752
v 0.479568 0.997179 -0.083752
v 0.485316 -0.000000 -0.074602
v 0.485315 0.997179 -0.074602
v -0.466661 0.997179 -0.006727
v -0.442976 0.997179 -0.075777
v -0.448007 0.997179 -0.088057
v -0.448007 -0.000000 -0.088054
v -0.442976 -0.000000 -0.075777
v -0.453755 0.997179 -0.097207
v -0.453754 -0.000000 -0.097207
v -0.459998 0.997179 -0.102883
v -0.459998 -0.000000 -0.102880
v -0.466498 0.997179 -0.104861
v -0.466498 -0.000000 -0.104861
v -0.473004 0.997179 -0.103068
v -0.473004 -0.000000 -0.103068
v -0.479266 0.997179 -0.097575
v -0.479266 -0.000000 -0.097575
v -0.485044 0.997179 -0.088589
v -0.485044 -0.000000 -0.088589
v -0.490116 0.997179 -0.076457
v -0.490116 -0.000000 -0.076457
v -0.494286 0.997179 -0.061646
v -0.494286 -0.000000 -0.061645
v -0.497394 0.997179 -0.044723
v -0.497394 -0.000000 -0.044726
v -0.499322 0.997179 -0.026343
v -0.499322 -0.000000 -0.026343
v -0.499994 0.997179 -0.007207
v -0.499994 -0.000000 -0.007207
v -0.499385 0.997179 0.011947
v -0.499385 0.000000 0.011947
v -0.497519 0.997179 0.030383
v -0.497519 0.000000 0.030383
v -0.494467 0.997179 0.047393
v -0.494467 0.000000 0.047393
v -0.490346 0.997179 0.062326
v -0.490346 0.000000 0.062326
v -0.485315 0.997179 0.074602
v -0.485316 0.000000 0.074602
v -0.479568 0.997179 0.083752
v -0.479568 0.000000 0.083752
v -0.473324 0.997179 0.089428
v -0.473324 0.000000 0.089428
v -0.466824 0.997179 0.091407
v -0.466824 0.000000 0.091407
v -0.460318 0.997179 0.089614
v -0.460318 0.000000 0.089614
v -0.454056 0.997179 0.084120
v -0.454056 0.000000 0.084120
v -0.448278 0.997179 0.075135
v -0.448278 0.000000 0.075135
v -0.443207 0.997179 0.063006
v -0.443207 0.000000 0.063006
v -0.439036 0.997179 0.048194
v -0.435928 0.997179 0.031272
v -0.434000 0.997179 0.012889
v -0.434000 0.000000 0.012889
v -0.433328 0.997179 -0.006247
v -0.433328 -0.000000 -0.006247
v -0.433937 0.997179 -0.025401
v -0.433937 -0.000000 -0.025401
v -0.435803 0.997179 -0.043837
v -0.435803 -0.000000 -0.043837
v -0.438855 0.997179 -0.060848
v -0.438855 -0.000000 -0.060848
v -0.465871 0.964236 -0.006715
v -0.465814 0.986271 -0.041411
v -0.465804 0.981550 -0.047514
v 0.467451 0.964236 0.006739
v 0.467519 0.981550 -0.034060
v 0.467508 0.986271 -0.027957
v -0.465796 0.976161 -0.052048
v 0.467526 0.976161 -0.038594
v -0.465791 0.970316 -0.054839
v 0.467531 0.970316 -0.041385
v -0.465790 0.964236 -0.055781
v 0.467532 0.964236 -0.042330
v -0.465791 0.958158 -0.054839
v 0.467531 0.958158 -0.041385
v -0.465796 0.952311 -0.052048
v 0.467526 0.952311 -0.038594
v -0.465804 0.946925 -0.047514
v 0.467519 0.946925 -0.034060
v -0.465814 0.942202 -0.041411
v 0.467508 0.942202 -0.027957
v -0.465826 0.938326 -0.033974
v 0.467496 0.938326 -0.020523
v -0.465840 0.935446 -0.025493
v 0.467482 0.935446 -0.012038
v -0.465855 0.933674 -0.016287
v 0.467467 0.933674 -0.002835
v -0.465871 0.933074 -0.006715
v 0.467451 0.933074 0.006739
v -0.465887 0.933674 0.002859
v 0.467435 0.933674 0.016310
v -0.465903 0.935446 0.012062
v 0.467420 0.935446 0.025516
v -0.465917 0.938326 0.020544
v 0.467405 0.938326 0.033998
v -0.465929 0.942202 0.027980
v 0.467393 0.942202 0.041435
v -0.465939 0.946925 0.034083
v 0.467383 0.946925 0.047535
v -0.465947 0.952311 0.038617
v 0.467375 0.952311 0.052071
v -0.465951 0.958158 0.041408
v 0.467371 0.958158 0.054862
v -0.465953 0.964236 0.042353
v 0.467369 0.964236 0.055804
v -0.465951 0.970316 0.041408
v 0.467371 0.970316 0.054862
v -0.465947 0.976161 0.038617
v 0.467375 0.976161 0.052071
v -0.465939 0.981550 0.034083
v 0.467383 0.981550 0.047535
v -0.465929 0.986271 0.027980
v 0.467393 0.986271 0.041435
v -0.465917 0.990147 0.020544
v 0.467405 0.990147 0.033998
v -0.465903 0.993026 0.012062
v 0.467420 0.993026 0.025516
v -0.465887 0.994800 0.002859
v 0.467435 0.994800 0.016310
v -0.465871 0.995399 -0.006715
v 0.467451 0.995399 0.006739
v -0.465855 0.994800 -0.016287
v 0.467467 0.994800 -0.002835
v -0.465840 0.993026 -0.025493
v 0.467482 0.993026 -0.012038
v -0.465826 0.990147 -0.033974
v 0.467496 0.990147 -0.020523
v -0.458524 0.001554 -0.890770
v -0.459830 0.498835 -0.105700
v -0.459830 0.000247 -0.105700
v -0.465191 0.001554 -0.890770
v -0.466496 0.000247 -0.105700
v -0.466496 0.498835 -0.105700
v 0.474809 0.001554 -0.890770
v 0.473504 0.498835 -0.105700
v 0.473504 0.000247 -0.105700
v 0.468143 0.001554 -0.890770
v 0.466837 0.000247 -0.105700
v 0.466837 0.498835 -0.105700
vt 0.000000 1.000000
vt 0.000000 0.000000
vt 1.000000 0.000000
vt 0.478737 0.520656
vt 0.239368 1.000000
vt 0.239368 0.520028
vt 0.239368 0.520656
vt 0.000000 0.520028
vt 0.812878 0.000000
vt 0.812878 0.520028
vt 0.000000 0.520027
vt 1.000000 1.000000
vn -0.000000 -1.000000 0.000000
vn 0.999999 0.000000 0.001664
vn -0.999999 -0.000000 -0.001664
vn -0.011330 -0.618071 0.786040
vn 0.011330 0.618071 -0.786040
vn 0.000000 1.000000 0.000000
vn -0.999999 0.000005 -0.001640
vn 0.999999 0.000113 0.001714
vn -0.999999 -0.000078 -0.001675
vn 0.999999 -0.000075 0.001634
vn -0.999999 -0.000059 -0.001670
vn 0.999999 0.000059 0.001670
vn -0.999999 0.000094 -0.001651
vn 0.999999 -0.000090 0.001651
vn -0.999999 -0.000094 -0.001651
vn 0.999999 0.000090 0.001651
vn -0.999999 0.000059 -0.001670
vn 0.999999 -0.000059 0.001670
vn -0.999999 0.000078 -0.001675
vn 0.999999 0.000075 0.001634
vn -0.999999 -0.000005 -0.001640
vn 0.999999 -0.000113 0.001714
vn -0.999999 -0.000024 -0.001628
vn 0.999999 0.000027 0.001625
vn -0.999999 0.000000 -0.001651
vn 0.999999 -0.000000 0.001651
vn -0.999999 -0.000013 -0.001631
vn 0.999999 0.000013 0.001631
vn -0.999999 -0.000000 -0.001672
vn 0.999999 0.000000 0.001672
vn -0.999999 -0.000020 -0.001735
vn 0.999999 -0.000013 0.001631
vn -0.999999 0.000030 -0.001658
vn 0.999998 0.000064 0.001749
vn -0.999999 0.000049 -0.001640
vn 0.999999 -0.000052 0.001638
vn -0.999999 0.000025 -0.001655
vn 0.999999 -0.000021 0.001658
vn -0.999999 -0.000063 -0.001693
vn 0.999999 0.000058 0.001692
vn -0.999999 0.000104 -0.001649
vn 0.999999 -0.000100 0.001650
vn -0.999999 -0.000069 -0.001671
vn 0.999999 0.000069 0.001672
vn -0.999999 0.000069 -0.001671
vn 0.999999 -0.000069 0.001672
vn -0.999999 -0.000104 -0.001649
vn 0.999999 0.000100 0.001650
vn -0.999999 0.000063 -0.001693
vn 0.999999 -0.000058 0.001692
vn -0.999999 -0.000025 -0.001655
vn 0.999999 0.000021 0.001658
vn -0.999999 -0.000049 -0.001640
vn 0.999999 0.000052 0.001638
vn -0.999999 -0.000030 -0.001658
vn 0.999999 -0.000064 0.001749
vn -0.999998 0.000020 -0.001735
vn -0.999999 0.000013 -0.001631
vn -0.999999 0.000024 -0.001628
vn 0.999999 -0.000027 0.001625
vn -0.999999 -0.000000 -0.001662
vn 0.999999 0.000000 0.001662
vn 0.006663 0.886695 -0.462308
vn 0.006662 0.886770 -0.462164
vn 0.004632 0.946950 -0.321349
vn 0.004633 0.946916 -0.321448
vn 0.002728 0.981916 -0.189298
vn 0.002728 0.981927 -0.189239
vn 0.000899 0.998052 -0.062376
vn 0.000899 0.998051 -0.062395
vn -0.000899 0.998051 0.062395
vn -0.000899 0.998052 0.062376
vn -0.002728 0.981927 0.189239
vn -0.002728 0.981916 0.189297
vn -0.004634 0.946916 0.321448
vn -0.004634 0.946916 0.321449
vn -0.006662 0.886769 0.462164
vn -0.006662 0.886770 0.462164
vn -0.008821 0.790800 0.612011
vn -0.008820 0.790943 0.611827
vn -0.011027 0.644028 0.764923
vn -0.011027 0.643783 0.765128
vn -0.013007 0.430884 0.902314
vn -0.013007 0.430884 0.902313
vn -0.014241 0.153104 0.988107
vn -0.014243 0.153571 0.988035
vn -0.014244 -0.153150 0.988100
vn -0.014240 -0.153617 0.988028
vn -0.013008 -0.430773 0.902366
vn -0.011023 -0.644161 0.764811
vn -0.011028 -0.643916 0.765016
vn -0.008825 -0.790688 0.612156
vn -0.008820 -0.790831 0.611971
vn -0.006662 -0.886770 0.462164
vn -0.004634 -0.946916 0.321448
vn -0.004634 -0.946916 0.321449
vn -0.002725 -0.981961 0.189061
vn -0.002726 -0.981950 0.189119
vn -0.000902 -0.998039 0.062581
vn -0.000902 -0.998041 0.062562
vn 0.000902 -0.998041 -0.062562
vn 0.000902 -0.998039 -0.062581
vn 0.002726 -0.981950 -0.189120
vn 0.002725 -0.981961 -0.189061
vn 0.004631 -0.946950 -0.321349
vn 0.004634 -0.946916 -0.321449
vn 0.006664 -0.886694 -0.462308
vn 0.006661 -0.886769 -0.462164
vn 0.008822 -0.790831 -0.611970
vn 0.008822 -0.790831 -0.611971
vn 0.011028 -0.643915 -0.765018
vn 0.011028 -0.643916 -0.765017
vn 0.013008 -0.430776 -0.902365
vn 0.013008 -0.430775 -0.902365
vn 0.014240 -0.153614 -0.988028
vn 0.014244 -0.153147 -0.988101
vn 0.014243 0.153568 -0.988035
vn 0.014241 0.153102 -0.988108
vn 0.013007 0.430887 -0.902312
vn 0.013007 0.430886 -0.902312
vn 0.011030 0.643781 -0.765130
vn 0.011030 0.643782 -0.765129
vn 0.008820 0.790944 -0.611825
vn 0.008820 0.790943 -0.611826
vn 0.963950 -0.000000 -0.266084
vn 0.984283 -0.000000 -0.176596
vn 0.994917 -0.000000 -0.100701
vn 0.999495 -0.000000 -0.031779
vn 0.999384 0.000000 0.035094
vn 0.994545 0.000000 0.104309
vn 0.983549 0.000000 0.180642
vn 0.962562 0.000000 0.271061
vn 0.922616 0.000000 0.385721
vn 0.841104 0.000000 0.540874
vn 0.659480 0.000000 0.751722
vn 0.265676 0.000000 0.964062
vn -0.291181 0.000000 0.956668
vn -0.672657 0.000000 0.739954
vn -0.846824 0.000000 0.531873
vn -0.846782 0.000001 0.531940
vn -0.925316 0.000001 0.379197
vn -0.925343 0.000000 0.379131
vn -0.963964 0.000000 0.266033
vn -0.984283 0.000000 0.176596
vn -0.994917 0.000000 0.100703
vn -0.999495 0.000000 0.031779
vn -0.999384 -0.000000 -0.035095
vn -0.994543 -0.000000 -0.104326
vn -0.994545 0.000000 -0.104309
vn -0.983549 0.000001 -0.180640
vn -0.983544 -0.000000 -0.180671
vn -0.962579 -0.000000 -0.271002
vn -0.922622 -0.000000 -0.385705
vn -0.841102 -0.000000 -0.540876
vn -0.659481 -0.000000 -0.751721
vn -0.265675 -0.000000 -0.964063
vn 0.291182 -0.000000 -0.956668
vn 0.291577 -0.000003 -0.956547
vn 0.672715 -0.000002 -0.739902
vn 0.672466 0.000001 -0.740128
vn 0.846782 0.000001 -0.531939
vn 0.846900 -0.000002 -0.531752
vn 0.925349 -0.000001 -0.379117
vn 0.925317 -0.000000 -0.379195
vn 0.925343 -0.000000 -0.379131
vn 0.925316 0.000001 -0.379197
vn 0.846824 -0.000000 -0.531873
vn 0.846782 0.000001 -0.531940
vn 0.672657 -0.000000 -0.739954
vn 0.291181 -0.000000 -0.956668
vn -0.265676 -0.000000 -0.964062
vn -0.659480 -0.000000 -0.751722
vn -0.841104 -0.000000 -0.540874
vn -0.922616 -0.000000 -0.385721
vn -0.962565 -0.000000 -0.271052
vn -0.962562 -0.000000 -0.271061
vn -0.983549 -0.000000 -0.180642
vn -0.999384 -0.000000 -0.035094
vn -0.994917 0.000000 0.100702
vn -0.994917 0.000000 0.100701
vn -0.963950 0.000000 0.266084
vn -0.925349 -0.000001 0.379117
vn -0.925317 0.000000 0.379195
vn -0.846823 0.000000 0.531874
vn -0.846900 -0.000002 0.531752
vn -0.672466 0.000000 0.740128
vn -0.291577 0.000000 0.956547
vn 0.265675 0.000000 0.964063
vn 0.659481 0.000000 0.751721
vn 0.841102 0.000000 0.540876
vn 0.922622 0.000000 0.385705
vn 0.962579 0.000000 0.271002
vn 0.983544 0.000000 0.180671
vn 0.999384 0.000000 0.035095
vn 0.994916 -0.000000 -0.100703
vn 0.963964 -0.000000 -0.266033
usemtl grey_naogoalnet.png
s off
f 1/1/1 2/2/1 3/3/1
f 4/4/2 5/5/2 6/6/2
f 7/7/3 8/8/3 9/1/3
f 10/7/2 11/1/2 12/8/2
f 13/4/3 14/6/3 15/5/3
f 16/9/4 17/10/4 18/11/4
f 16/9/4 18/11/4 19/2/4
f 20/9/5 7/2/5 9/11/5
f 20/9/5 9/11/5 21/10/5
usemtl yellow
f 22/1/1 23/2/1 24/3/1
f 25/1/6 26/2/6 27/3/6
f 22/1/1 24/2/1 28/3/1
f 25/1/6 29/2/6 26/3/6
f 22/1/1 28/2/1 30/3/1
f 25/1/6 31/2/6 29/3/6
f 22/1/1 30/2/1 32/3/1
f 25/1/6 33/2/6 31/3/6
f 22/1/1 32/2/1 34/3/1
f 25/1/6 35/2/6 33/3/6
f 22/1/1 34/2/1 36/3/1
f 25/1/6 37/2/6 35/3/6
f 22/1/1 36/2/1 38/3/1
f 25/1/6 39/2/6 37/3/6
f 22/1/1 38/2/1 40/3/1
f 25/1/6 41/2/6 39/3/6
f 22/1/1 40/2/1 42/3/1
f 25/1/6 43/2/6 41/3/6
f 22/1/1 42/2/1 44/3/1
f 25/1/6 45/2/6 43/3/6
f 22/1/1 44/2/1 46/3/1
f 25/1/6 47/2/6 45/3/6
f 22/1/1 46/2/1 48/3/1
f 25/1/6 49/2/6 47/3/6
f 22/1/1 48/2/1 50/3/1
f 25/1/6 51/2/6 49/3/6
f 22/1/1 50/2/1 52/3/1
f 25/1/6 53/2/6 51/3/6
f 22/1/1 52/2/1 54/3/1
f 25/1/6 55/2/6 53/3/6
f 22/1/1 54/2/1 56/3/1
f 25/1/6 57/2/6 55/3/6
f 22/1/1 56/2/1 58/3/1
f 25/1/6 59/2/6 57/3/6
f 22/1/1 58/2/1 60/3/1
f 25/1/6 61/2/6 59/3/6
f 22/1/1 60/2/1 62/3/1
f 25/1/6 63/2/6 61/3/6
f 22/1/1 62/2/1 64/3/1
f 25/1/6 65/2/6 63/3/6
f 22/1/1 64/2/1 66/3/1
f 25/1/6 67/2/6 65/3/6
f 22/1/1 66/2/1 68/3/1
f 25/1/6 69/2/6 67/3/6
f 22/1/1 68/2/1 70/3/1
f 25/1/6 71/2/6 69/3/6
f 22/1/1 70/2/1 72/3/1
f 25/1/6 73/2/6 71/3/6
f 22/1/1 72/2/1 74/3/1
f 25/1/6 75/2/6 73/3/6
f 22/1/1 74/2/1 76/3/1
f 25/1/6 77/2/6 75/3/6
f 22/1/1 76/2/1 78/3/1
f 25/1/6 79/2/6 77/3/6
f 22/1/1 78/2/1 80/3/1
f 25/1/6 81/2/6 79/3/6
f 22/1/1 80/2/1 82/3/1
f 25/1/6 83/2/6 81/3/6
f 22/1/1 82/2/1 84/3/1
f 25/1/6 85/2/6 83/3/6
f 22/1/1 84/2/1 86/3/1
f 25/1/6 87/2/6 85/3/6
f 86/1/1 23/2/1 22/3/1
f 25/1/6 27/2/6 87/3/6
f 88/1/6 89/2/6 90/3/6
f 1/1/1 91/2/1 92/3/1
f 88/1/6 90/2/6 93/3/6
f 1/1/1 94/2/1 91/3/1
f 88/1/6 93/2/6 95/3/6
f 1/1/1 96/2/1 94/3/1
f 88/1/6 95/2/6 97/3/6
f 1/1/1 98/2/1 96/3/1
f 88/1/6 97/2/6 99/3/6
f 1/1/1 100/2/1 98/3/1
f 88/1/6 99/2/6 101/3/6
f 1/1/1 102/2/1 100/3/1
f 88/1/6 101/2/6 103/3/6
f 1/1/1 104/2/1 102/3/1
f 88/1/6 103/2/6 105/3/6
f 1/1/1 106/2/1 104/3/1
f 88/1/6 105/2/6 107/3/6
f 1/1/1 108/2/1 106/3/1
f 88/1/6 107/2/6 109/3/6
f 1/1/1 110/2/1 108/3/1
f 88/1/6 109/2/6 111/3/6
f 1/1/1 112/2/1 110/3/1
f 88/1/6 111/2/6 113/3/6
f 1/1/1 114/2/1 112/3/1
f 88/1/6 113/2/6 115/3/6
f 1/1/1 116/2/1 114/3/1
f 88/1/6 115/2/6 117/3/6
f 1/1/1 118/2/1 116/3/1
f 88/1/6 117/2/6 119/3/6
f 1/1/1 120/2/1 118/3/1
f 88/1/6 119/2/6 121/3/6
f 1/1/1 122/2/1 120/3/1
f 88/1/6 121/2/6 123/3/6
f 1/1/1 124/2/1 122/3/1
f 88/1/6 123/2/6 125/3/6
f 1/1/1 126/2/1 124/3/1
f 88/1/6 125/2/6 127/3/6
f 1/1/1 128/2/1 126/3/1
f 88/1/6 127/2/6 129/3/6
f 1/1/1 130/2/1 128/3/1
f 88/1/6 129/2/6 131/3/6
f 1/1/1 132/2/1 130/3/1
f 88/1/6 131/2/6 133/3/6
f 1/1/1 134/2/1 132/3/1
f 88/1/6 133/2/6 135/3/6
f 1/1/1 136/2/1 134/3/1
f 88/1/6 135/2/6 137/3/6
f 1/1/1 138/2/1 136/3/1
f 88/1/6 137/2/6 139/3/6
f 1/1/1 3/2/1 138/3/1
f 88/1/6 139/2/6 140/3/6
f 88/1/6 140/2/6 141/3/6
f 1/1/1 142/2/1 2/3/1
f 88/1/6 141/2/6 143/3/6
f 1/1/1 144/2/1 142/3/1
f 88/1/6 143/2/6 145/3/6
f 1/1/1 146/2/1 144/3/1
f 88/1/6 145/2/6 147/3/6
f 1/1/1 148/2/1 146/3/1
f 88/1/6 147/2/6 149/3/6
f 1/1/1 150/2/1 148/3/1
f 88/1/6 149/2/6 89/3/6
f 1/1/1 92/2/1 150/3/1
f 151/1/7 152/2/7 153/3/7
f 154/1/8 155/2/8 156/3/8
f 151/1/9 153/2/9 157/3/9
f 154/1/10 158/2/10 155/3/10
f 151/1/11 157/2/11 159/3/11
f 154/1/12 160/2/12 158/3/12
f 151/1/13 159/2/13 161/3/13
f 154/1/14 162/2/14 160/3/14
f 151/1/15 161/2/15 163/3/15
f 154/1/16 164/2/16 162/3/16
f 151/1/17 163/2/17 165/3/17
f 154/1/18 166/2/18 164/3/18
f 151/1/19 165/2/19 167/3/19
f 154/1/20 168/2/20 166/3/20
f 151/1/21 167/2/21 169/3/21
f 154/1/22 170/2/22 168/3/22
f 151/1/23 169/2/23 171/3/23
f 154/1/24 172/2/24 170/3/24
f 151/1/25 171/2/25 173/3/25
f 154/1/26 174/2/26 172/3/26
f 151/1/27 173/2/27 175/3/27
f 154/1/28 176/2/28 174/3/28
f 151/1/29 175/2/29 177/3/29
f 154/1/30 178/2/30 176/3/30
f 151/1/29 177/2/29 179/3/29
f 154/1/30 180/2/30 178/3/30
f 151/1/31 179/2/31 181/3/31
f 154/1/32 182/2/32 180/3/32
f 151/1/33 181/2/33 183/3/33
f 154/1/34 184/2/34 182/3/34
f 151/1/35 183/2/35 185/3/35
f 154/1/36 186/2/36 184/3/36
f 151/1/37 185/2/37 187/3/37
f 154/1/38 188/2/38 186/3/38
f 151/1/39 187/2/39 189/3/39
f 154/1/40 190/2/40 188/3/40
f 151/1/41 189/2/41 191/3/41
f 154/1/42 192/2/42 190/3/42
f 151/1/43 191/2/43 193/3/43
f 154/1/44 194/2/44 192/3/44
f 151/1/45 193/2/45 195/3/45
f 154/1/46 196/2/46 194/3/46
f 151/1/47 195/2/47 197/3/47
f 154/1/48 198/2/48 196/3/48
f 151/1/49 197/2/49 199/3/49
f 154/1/50 200/2/50 198/3/50
f 151/1/51 199/2/51 201/3/51
f 154/1/52 202/2/52 200/3/52
f 151/1/53 201/2/53 203/3/53
f 154/1/54 204/2/54 202/3/54
f 151/1/55 203/2/55 205/3/55
f 154/1/56 206/2/56 204/3/56
f 151/1/57 205/2/57 207/3/57
f 154/1/28 208/2/28 206/3/28
f 151/1/29 207/2/29 209/3/29
f 154/1/30 210/2/30 208/3/30
f 151/1/29 209/2/29 211/3/29
f 154/1/30 212/2/30 210/3/30
f 151/1/58 211/2/58 213/3/58
f 154/1/32 214/2/32 212/3/32
f 151/1/25 213/2/25 215/3/25
f 154/1/26 216/2/26 214/3/26
f 151/1/59 215/2/59 152/3/59
f 154/1/60 156/2/60 216/3/60
f 217/1/2 218/2/2 219/3/2
f 220/1/61 221/3/61 222/2/61
f 223/1/62 224/2/62 225/3/62
f 226/1/3 227/3/3 228/2/3
f 215/1/63 216/2/63 156/3/63
f 215/1/64 156/3/64 152/12/64
f 213/1/65 214/2/65 216/3/65
f 213/1/66 216/3/66 215/12/66
f 211/1/67 212/2/67 214/3/67
f 211/1/68 214/3/68 213/12/68
f 209/1/69 210/2/69 212/3/69
f 209/1/70 212/3/70 211/12/70
f 207/1/71 208/2/71 210/3/71
f 207/1/72 210/3/72 209/12/72
f 205/1/73 206/2/73 208/3/73
f 205/1/74 208/3/74 207/12/74
f 203/1/75 204/2/75 206/3/75
f 203/1/76 206/3/76 205/12/76
f 201/1/77 202/2/77 204/3/77
f 201/1/78 204/3/78 203/12/78
f 199/1/79 200/2/79 202/3/79
f 199/1/80 202/3/80 201/12/80
f 197/1/81 198/2/81 200/3/81
f 197/1/82 200/3/82 199/12/82
f 195/1/83 196/2/83 198/3/83
f 195/1/84 198/3/84 197/12/84
f 193/1/85 194/2/85 196/3/85
f 193/1/86 196/3/86 195/12/86
f 191/1/87 192/2/87 194/3/87
f 191/1/88 194/3/88 193/12/88
f 189/1/89 190/2/89 192/3/89
f 189/1/89 192/3/89 191/12/89
f 187/1/90 188/2/90 190/3/90
f 187/1/91 190/3/91 189/12/91
f 185/1/92 186/2/92 188/3/92
f 185/1/93 188/3/93 187/12/93
f 183/1/94 184/2/94 186/3/94
f 183/1/94 186/3/94 185/12/94
f 181/1/95 182/2/95 184/3/95
f 181/1/96 184/3/96 183/12/96
f 179/1/97 180/2/97 182/3/97
f 179/1/98 182/3/98 181/12/98
f 177/1/99 178/2/99 180/3/99
f 177/1/100 180/3/100 179/12/100
f 175/1/101 176/2/101 178/3/101
f 175/1/102 178/3/102 177/12/102
f 173/1/103 174/2/103 176/3/103
f 173/1/104 176/3/104 175/12/104
f 171/1/105 172/2/105 174/3/105
f 171/1/106 174/3/106 173/12/106
f 169/1/107 170/2/107 172/3/107
f 169/1/108 172/3/108 171/12/108
f 167/1/109 168/2/109 170/3/109
f 167/1/110 170/3/110 169/12/110
f 165/1/111 166/2/111 168/3/111
f 165/1/112 168/3/112 167/12/112
f 163/1/113 164/2/113 166/3/113
f 163/1/114 166/3/114 165/12/114
f 161/1/115 162/2/115 164/3/115
f 161/1/116 164/3/116 163/12/116
f 159/1/117 160/2/117 162/3/117
f 159/1/118 162/3/118 161/12/118
f 157/1/119 158/2/119 160/3/119
f 157/1/120 160/3/120 159/12/120
f 153/1/121 155/2/121 158/3/121
f 153/1/122 158/3/122 157/12/122
f 152/1/123 156/2/123 155/3/123
f 152/1/124 155/3/124 153/12/124
f 92/1/125 89/2/125 149/3/125
f 92/1/125 149/3/125 150/12/125
f 150/1/126 149/2/126 147/3/126
f 150/1/126 147/3/126 148/12/126
f 148/1/127 147/2/127 145/3/127
f 148/1/127 145/3/127 146/12/127
f 146/1/128 145/2/128 143/3/128
f 146/1/128 143/3/128 144/12/128
f 144/1/129 143/2/129 141/3/129
f 144/1/129 141/3/129 142/12/129
f 142/1/130 141/2/130 140/3/130
f 142/1/130 140/3/130 2/12/130
f 2/1/131 140/2/131 139/3/131
f 2/1/131 139/3/131 3/12/131
f 3/1/132 139/2/132 137/3/132
f 3/1/132 137/3/132 138/12/132
f 138/1/133 137/2/133 135/3/133
f 138/1/133 135/3/133 136/12/133
f 136/1/134 135/2/134 133/3/134
f 136/1/134 133/3/134 134/12/134
f 134/1/135 133/2/135 131/3/135
f 134/1/135 131/3/135 132/12/135
f 132/1/136 131/2/136 129/3/136
f 132/1/136 129/3/136 130/12/136
f 130/1/137 129/2/137 127/3/137
f 130/1/137 127/3/137 128/12/137
f 128/1/138 127/2/138 125/3/138
f 128/1/138 125/3/138 126/12/138
f 126/1/139 125/2/139 123/3/139
f 126/1/140 123/3/140 124/12/140
f 124/1/141 123/2/141 121/3/141
f 124/1/142 121/3/142 122/12/142
f 122/1/143 121/2/143 119/3/143
f 122/1/143 119/3/143 120/12/143
f 120/1/144 119/2/144 117/3/144
f 120/1/144 117/3/144 118/12/144
f 118/1/145 117/2/145 115/3/145
f 118/1/145 115/3/145 116/12/145
f 116/1/146 115/2/146 113/3/146
f 116/1/146 113/3/146 114/12/146
f 114/1/147 113/2/147 111/3/147
f 114/1/147 111/3/147 112/12/147
f 112/1/148 111/2/148 109/3/148
f 112/1/149 109/3/149 110/12/149
f 110/1/150 109/2/150 107/3/150
f 110/1/151 107/3/151 108/12/151
f 108/1/152 107/2/152 105/3/152
f 108/1/152 105/3/152 106/12/152
f 106/1/153 105/2/153 103/3/153
f 106/1/153 103/3/153 104/12/153
f 104/1/154 103/2/154 101/3/154
f 104/1/154 101/3/154 102/12/154
f 102/1/155 101/2/155 99/3/155
f 102/1/155 99/3/155 100/12/155
f 100/1/156 99/2/156 97/3/156
f 100/1/156 97/3/156 98/12/156
f 98/1/157 97/2/157 95/3/157
f 98/1/158 95/3/158 96/12/158
f 96/1/159 95/2/159 93/3/159
f 96/1/160 93/3/160 94/12/160
f 94/1/161 93/2/161 90/3/161
f 94/1/162 90/3/162 91/12/162
f 91/1/163 90/2/163 89/3/163
f 91/1/164 89/3/164 92/12/164
f 27/1/165 23/2/165 86/3/165
f 27/1/166 86/3/166 87/12/166
f 84/1/167 85/2/167 87/3/167
f 84/1/168 87/3/168 86/12/168
f 82/1/169 83/2/169 85/3/169
f 82/1/169 85/3/169 84/12/169
f 80/1/170 81/2/170 83/3/170
f 80/1/170 83/3/170 82/12/170
f 78/1/171 79/2/171 81/3/171
f 78/1/171 81/3/171 80/12/171
f 76/1/172 77/2/172 79/3/172
f 76/1/172 79/3/172 78/12/172
f 74/1/173 75/2/173 77/3/173
f 74/1/173 77/3/173 76/12/173
f 72/1/153 73/2/153 75/3/153
f 72/1/174 75/3/174 74/12/174
f 70/1/175 71/2/175 73/3/175
f 70/1/176 73/3/176 72/12/176
f 68/1/177 69/2/177 71/3/177
f 68/1/177 71/3/177 70/12/177
f 66/1/149 67/2/149 69/3/149
f 66/1/149 69/3/149 68/12/149
f 64/1/178 65/2/178 67/3/178
f 64/1/178 67/3/178 66/12/178
f 62/1/146 63/2/146 65/3/146
f 62/1/146 65/3/146 64/12/146
f 60/1/179 61/2/179 63/3/179
f 60/1/180 63/3/180 62/12/180
f 58/1/144 59/2/144 61/3/144
f 58/1/144 61/3/144 60/12/144
f 56/1/181 57/2/181 59/3/181
f 56/1/181 59/3/181 58/12/181
f 54/1/182 55/2/182 57/3/182
f 54/1/183 57/3/183 56/12/183
f 52/1/184 53/2/184 55/3/184
f 52/1/185 55/3/185 54/12/185
f 50/1/186 51/2/186 53/3/186
f 50/1/186 53/3/186 52/12/186
f 48/1/187 49/2/187 51/3/187
f 48/1/187 51/3/187 50/12/187
f 46/1/188 47/2/188 49/3/188
f 46/1/188 49/3/188 48/12/188
f 44/1/189 45/2/189 47/3/189
f 44/1/189 47/3/189 46/12/189
f 42/1/190 43/2/190 45/3/190
f 42/1/190 45/3/190 44/12/190
f 40/1/191 41/2/191 43/3/191
f 40/1/191 43/3/191 42/12/191
f 38/1/192 39/2/192 41/3/192
f 38/1/192 41/3/192 40/12/192
f 36/1/193 37/2/193 39/3/193
f 36/1/193 39/3/193 38/12/193
f 34/1/130 35/2/130 37/3/130
f 34/1/130 37/3/130 36/12/130
f 32/1/194 33/2/194 35/3/194
f 32/1/194 35/3/194 34/12/194
f 30/1/128 31/2/128 33/3/128
f 30/1/128 33/3/128 32/12/128
f 28/1/195 29/2/195 31/3/195
f 28/1/195 31/3/195 30/12/195
f 24/1/126 26/2/126 29/3/126
f 24/1/126 29/3/126 28/12/126
f 23/1/196 27/2/196 26/3/196
f 23/1/196 26/3/196 24/12/196
