# Mvds OBJ File:
# www.martenvdsanden.net/mvds
mtllib nao.mtl
o this_is_here_because_of_a_bug_in_simsaprk
v -0.0283353 0.0178476 -0.0204572
v -0.0283323 0.0221481 0.0204618
v -0.0417047 0.0919374 0.00605997
v -0.0396663 0.0657183 -0.0337617
v -0.0396619 0.071739 0.0235251
v -0.0396673 0.0930022 -0.0206207
v -0.0252964 0.000674297 -0.0164336
v -0.0252937 0.0045135 0.0200961
v -0.0312623 0.0025935 0.00183176
v -0.0417143 0.0380155 -0.00212877
v -0.0350284 0.0401663 0.0183301
v -0.0350315 0.0358658 -0.0225889
v -0.050482 0.0887285 0.00615937
v -0.0571056 0.0708129 -0.00557458
v -0.0463565 0.0710621 0.0233582
v -0.0484446 0.0897934 -0.0205214
v -0.0463609 0.0650414 -0.0339286
v -0.0319913 0.0034867 -0.0169672
v -0.0319885 0.0073259 0.0195625
v -0.0379572 0.0054058 0.00129815
v -0.0108313 0.0234784 0.0331051
v 0.0107994 0.02348 0.0331033
v 0.0282985 0.0221524 0.0204572
v 0.0349813 0.0200026 -2.86847e-06
v 0.0282954 0.0178518 -0.0204618
v 0.0107944 0.0165216 -0.0331051
v -0.0108363 0.01652 -0.0331033
v -0.0283353 0.0178476 -0.0204572
v -0.0350181 0.0199973 2.87034e-06
v -0.0283323 0.0221481 0.0204618
v 0.0257329 0.0868209 -0.0426759
v -0.0257874 0.0868171 -0.0426717
v -0.0417047 0.0919374 0.00605997
v -2.13583e-05 0.0951058 0.0361743
v -2.71703e-05 0.117463 -0.0102432
v -0.0151606 0.0736013 0.0412257
v 0.0151225 0.0736036 0.0412232
v 0.0396212 0.071745 0.0235185
v 0.0489772 0.0687353 -0.00512567
v 0.0396169 0.0657242 -0.0337683
v 0.0151155 0.0638619 -0.0514689
v -0.0151675 0.0638596 -0.0514664
v -0.0396663 0.0657183 -0.0337617
v -0.0490223 0.0687279 -0.00511749
v -0.0396619 0.071739 0.0235251
v 0.0244773 0.0978779 0.02572
v 0.0396154 0.0930082 -0.0206273
v -2.80779e-05 0.0899948 -0.0492671
v -0.0396673 0.0930022 -0.0206207
v -0.0245222 0.0978742 0.025724
v -2.45799e-05 0.112878 0.0161411
v 0.0151134 0.108008 -0.0302059
v -0.0151695 0.108006 -0.0302034
v -0.0245255 0.111015 -0.0015596
v -0.00974708 -0.0116778 0.0334529
v 0.00972055 -0.0116763 0.0334512
v 0.0254697 -0.0128712 0.0220697
v 0.0314842 -0.0148059 0.00365568
v 0.0254669 -0.0167416 -0.0147574
v 0.00971607 -0.0179388 -0.0261363
v -0.00975156 -0.0179403 -0.0261347
v -0.0255007 -0.0167455 -0.0147531
v -0.0315153 -0.0148107 0.00366086
v -0.0254979 -0.012875 0.0220739
v -0.0108251 -0.0367727 0.0521134
v 0.0108056 -0.0367711 0.0521116
v 0.0367991 -0.0416753 0.0349989
v 0.045487 -0.0496132 0.00731276
v 0.0367956 -0.0575523 -0.0203719
v 0.0107999 -0.0624605 -0.0374803
v -0.0108307 -0.0624621 -0.0374785
v -0.0368243 -0.0575578 -0.0203657
v -0.0455122 -0.04962 0.00732039
v -0.0368208 -0.0416808 0.035005
v 0.00964047 0.0057026 0.0313815
v -0.00966994 0.0057011 0.0313831
v 0.0312284 0.0025982 0.00182658
v 0.0252624 0.0045173 0.0200919
v 0.00963606 -0.000509401 -0.0277248
v 0.0252597 0.000678201 -0.0164378
v -0.0252964 0.000674297 -0.0164336
v -0.00967442 -0.000510801 -0.0277232
v -0.0252937 0.0045135 0.0200961
v -0.0312623 0.0025935 0.00183176
vt 0 1 0
vt 0 0 0
vt 1 0 0
vt 0 1 0
vt 0 0 0
vt 1 0 0
vt 0 1 0
vt 0 0 0
vt 1 0 0
vt 0 1 0
vt 0 0 0
vt 1 0 0
vt 0 1 0
vt 0 0 0
vt 1 0 0
vt 0 1 0
vt 0 0 0
vt 1 0 0
vt 0 1 0
vt 0 0 0
vt 1 0 0
vt 0 1 0
vt 0 0 0
vt 1 0 0
vt 0 1 0
vt 0 0 0
vt 1 0 0
vt 0 1 0
vt 0 0 0
vt 1 0 0
vt 0 1 0
vt 0 0 0
vt 1 0 0
vt 0 1 0
vt 0 0 0
vt 1 0 0
vt 0 1 0
vt 0 0 0
vt 1 0 0
vt 0 1 0
vt 0 0 0
vt 1 0 0
vt 0 1 0
vt 0 0 0
vt 1 0 0
vt 0 1 0
vt 0 0 0
vt 1 0 0
vt 0 1 0
vt 0 0 0
vt 1 0 0
vt 0 1 0
vt 0 0 0
vt 1 0 0
vt 0 1 0
vt 0 0 0
vt 1 0 0
vt 0 1 0
vt 0 0 0
vt 1 0 0
vt 0 1 0
vt 0 0 0
vt 1 0 0
vt 0 1 0
vt 0 0 0
vt 1 0 0
vt 0 1 0
vt 0 0 0
vt 1 0 0
vt 0 1 0
vt 0 0 0
vt 1 0 0
vt 0 1 0
vt 0 0 0
vt 1 0 0
vt 0 1 0
vt 0 0 0
vt 1 0 0
vt 0 1 0
vt 0 0 0
vt 1 0 0
vt 0 1 0
vt 0 0 0
vt 1 0 0
vt 0 1 0
vt 0 0 0
vt 1 0 0
vt 0 1 0
vt 0 0 0
vt 1 0 0
vt 0 1 0
vt 0 0 0
vt 1 0 0
vt 0 1 0
vt 0 0 0
vt 1 0 0
vt 0 1 0
vt 0 0 0
vt 1 0 0
vt 0 1 0
vt 1 0 0
vt 1 1 0
vt 0 1 0
vt 0 0 0
vt 1 1 0
vt 0 0 0
vt 1 0 0
vt 1 1 0
vt 0 1 0
vt 0 0 0
vt 1 1 0
vt 0 0 0
vt 1 0 0
vt 1 1 0
vt 0 1 0
vt 0 0 0
vt 1 1 0
vt 0 0 0
vt 1 0 0
vt 1 1 0
vt 0 1 0
vt 0 0 0
vt 1 1 0
vt 0 0 0
vt 1 0 0
vt 1 1 0
vt 0 1 0
vt 0 0 0
vt 1 0 0
vt 0 1 0
vt 1 0 0
vt 1 1 0
vt 0 1 0
vt 0 0 0
vt 1 0 0
vt 0 1 0
vt 1 0 0
vt 1 1 0
vt 0 1 0
vt 0 0 0
vt 1 0 0
vt 0 1 0
vt 1 0 0
vt 1 1 0
vt 0 1 0
vt 0 0 0
vt 1 0 0
vt 0 1 0
vt 1 0 0
vt 1 1 0
vt 0 1 0
vt 0 0 0
vt 1 1 0
vt 0 0 0
vt 1 0 0
vt 1 1 0
vt 0 1 0
vt 0 0 0
vt 1 0 0
vt 0 1 0
vt 1 0 0
vt 1 1 0
vt 0 1 0
vt 0 0 0
vt 1 0 0
vt 0 1 0
vt 1 0 0
vt 1 1 0
vt 0 1 0
vt 0 0 0
vt 1 0 0
vt 0 1 0
vt 1 0 0
vt 1 1 0
vt 0 1 0
vt 0 0 0
vt 1 0 0
vt 0 1 0
vt 1 0 0
vt 1 1 0
vt 0 1 0
vt 0 0 0
vt 1 0 0
vt 0 1 0
vt 1 0 0
vt 1 1 0
vt 0 1 0
vt 0 0 0
vt 1 1 0
vt 0 0 0
vt 1 0 0
vt 1 1 0
vt 0 1 0
vt 0 0 0
vt 1 0 0
vt 0 1 0
vt 1 0 0
vt 1 1 0
vt 0 1 0
vt 0 0 0
vt 1 0 0
vt 0 1 0
vt 1 0 0
vt 1 1 0
vt 0 1 0
vt 0 0 0
vt 1 0 0
vt 0 1 0
vt 1 0 0
vt 1 1 0
vt 0 1 0
vt 0 0 0
vt 1 1 0
vt 0 0 0
vt 1 0 0
vt 1 1 0
vt 0 1 0
vt 0 0 0
vt 1 0 0
vt 0 1 0
vt 1 0 0
vt 1 1 0
vt 0 1 0
vt 0 0 0
vt 1 0 0
vt 0 1 0
vt 1 0 0
vt 1 1 0
vt 0 1 0
vt 0 0 0
vt 1 0 0
vt 0 1 0
vt 1 0 0
vt 1 1 0
vt 0 1 0
vt 0 0 0
vt 1 1 0
vt 0 0 0
vt 1 0 0
vt 1 1 0
vt 0 1 0
vt 0 0 0
vt 1 0 0
vt 0 1 0
vt 1 0 0
vt 1 1 0
vt 0 1 0
vt 0 0 0
vt 1 0 0
vt 0 1 0
vt 1 0 0
vt 1 1 0
vt 0 1 0
vt 0 0 0
vt 1 1 0
vt 0 0 0
vt 1 0 0
vt 1 1 0
vt 0 1 0
vt 0 0 0
vt 1 0 0
vt 0 1 0
vt 1 0 0
vt 1 1 0
vt 0 1 0
vt 0 0 0
vt 1 1 0
vt 0 0 0
vt 1 0 0
vt 1 1 0
vt 0 1 0
vt 0 0 0
vt 1 1 0
vt 0 0 0
vt 1 0 0
vt 1 1 0
vt 0 1 0
vt 0 0 0
vt 1 0 0
vt 0 1 0
vt 1 0 0
vt 1 1 0
vt 0 1 0
vt 0 0 0
vt 1 0 0
vt 0 1 0
vt 1 0 0
vt 1 1 0
vt 0 1 0
vt 0 0 0
vt 1 0 0
vt 0 1 0
vt 1 0 0
vt 1 1 0
vt 0 1 0
vt 0 0 0
vt 1 1 0
vt 0 0 0
vt 1 0 0
vt 1 1 0
vt 0 1 0
vt 0 0 0
vt 1 1 0
vt 0 0 0
vt 1 0 0
vt 1 1 0
vt 0 1 0
vt 0 0 0
vt 1 1 0
vt 0 0 0
vt 1 0 0
vt 1 1 0
vt 0 1 0
vt 0 0 0
vt 1 0 0
vt 0 1 0
vt 1 0 0
vt 1 1 0
vt 0 1 0
vt 0 0 0
vt 1 1 0
vt 0 0 0
vt 1 0 0
vt 1 1 0
vt 0 1 0
vt 0 0 0
vt 1 0 0
vt 0 1 0
vt 1 0 0
vt 1 1 0
vt 0 1 0
vt 0 0 0
vt 1 0 0
vt 0 1 0
vt 1 0 0
vt 1 1 0
vt 0 1 0
vt 0 0 0
vt 1 0 0
vt 0 1 0
vt 1 0 0
vt 1 1 0
vt 0 1 0
vt 0 0 0
vt 1 1 0
vt 0 0 0
vt 1 0 0
vt 1 1 0
vt 0 1 0
vt 0 0 0
vt 1 1 0
vt 0 0 0
vt 1 0 0
vt 1 1 0
vt 0.363641 0.025852 0
vt 0.309036 0.999956 0
vt 0.142901 0 0
vt 0.309036 0.999956 0
vt 0 0.963763 0
vt 0.142901 0 0
vt 0.363641 0.025852 0
vt 0.63647 0.025883 0
vt 0.690997 1 0
vt 0.363641 0.025852 0
vt 0.690997 1 0
vt 0.309036 0.999956 0
vt 0.63647 0.025883 0
vt 0.857185 8.2e-05 0
vt 0.690997 1 0
vt 0.857185 8.2e-05 0
vt 1 0.963878 0
vt 0.690997 1 0
vt 0 1 0
vt 0 0 0
vt 1 0 0
vt 0 1 0
vt 0 0 0
vt 1 0 0
vt 0 1 0
vt 0 0 0
vt 1 0 0
vt 0 1 0
vt 0 0 0
vt 1 1 0
vt 0 0 0
vt 1 0 0
vt 1 1 0
vt 0 1 0
vt 0 0 0
vt 1 1 0
vt 0 0 0
vt 1 0 0
vt 1 1 0
vt 0 1 0
vt 0 0 0
vt 1 0 0
vt 0 1 0
vt 1 0 0
vt 1 1 0
vt 0 1 0
vt 0 0 0
vt 1 0 0
vt 0 1 0
vt 1 0 0
vt 1 1 0
vt 0 1 0
vt 0 0 0
vt 1 1 0
vt 0 0 0
vt 1 0 0
vt 1 1 0
vt 0 1 0
vt 0 0 0
vt 1 0 0
vt 0 1 0
vt 1 0 0
vt 1 1 0
vt 0 1 0
vt 0 0 0
vt 1 1 0
vt 0 0 0
vt 1 0 0
vt 1 1 0
vt 0 1 0
vt 0 0 0
vt 1 0 0
vt 0 1 0
vt 1 0 0
vt 1 1 0
vt 0 1 0
vt 0 0 0
vt 1 1 0
vt 0 0 0
vt 1 0 0
vt 1 1 0
vt 0 1 0
vt 0 0 0
vt 1 0 0
vt 0 1 0
vt 1 0 0
vt 1 1 0
vt 0 1 0
vt 0 0 0
vt 1 1 0
vt 0 0 0
vt 1 0 0
vt 1 1 0
vt 0 1 0
vt 0 0 0
vt 1 0 0
vt 0 1 0
vt 1 0 0
vt 1 1 0
vt 0 1 0
vt 0 0 0
vt 1 0 0
vt 0 1 0
vt 1 0 0
vt 1 1 0
vn -0.330769 -0.268711 -0.904647
vn -0.404217 -0.0849018 0.910714
vn -0.327019 0.903126 0.278248
vn -0.248787 0.0645682 -0.966404
vn -0.319296 0.275978 0.906579
vn -0.299407 0.803049 -0.515236
vn -0.256141 -0.729969 -0.63367
vn -0.303327 -0.578378 0.757279
vn -0.392038 -0.914778 0.0973997
vn -0.946284 -0.321558 0.0338677
vn -0.724849 -0.168936 0.667874
vn -0.699668 -0.305286 -0.645961
vn -0.608476 0.666574 0.430622
vn -0.999161 -0.0409465 0.000127115
vn -0.714618 -0.0273545 0.69898
vn -0.568555 0.685848 -0.454266
vn -0.691991 -0.159768 -0.704005
vn -0.502407 -0.625941 -0.596478
vn -0.536624 -0.481448 0.692995
vn -0.896098 -0.441368 0.0469345
vn -0.300469 -0.144679 0.942755
vn 0.300703 -0.133556 0.94432
vn 0.785419 -0.181478 0.591763
vn 0.967431 -0.251756 0.0263864
vn 0.785334 -0.300552 -0.54122
vn 0.30051 -0.337467 -0.892082
vn -0.300665 -0.327012 -0.895915
vn -0.785379 -0.300669 -0.541089
vn -0.967389 -0.251902 0.0265467
vn -0.785296 -0.181594 0.591891
vn 0.525633 0.369177 -0.766432
vn -0.525819 0.369087 -0.766348
vn -0.850668 0.473589 0.228206
vn 2.80485e-05 0.538246 0.842788
vn 0.123925 0.989711 -0.0715205
vn -0.362805 0.0718595 0.92909
vn 0.311661 0.0371681 0.949466
vn 0.842196 0.0231198 0.538676
vn 0.990791 0.12874 0.041935
vn 0.841046 -0.0818708 -0.534733
vn 0.355568 -0.1231 -0.926508
vn -0.305307 -0.161302 -0.938493
vn -0.841122 -0.0820068 -0.534592
vn -0.999664 0.0248802 -0.00721991
vn -0.836825 0.0316093 0.546558
vn 0.609335 0.599518 0.518931
vn 0.749221 0.643455 -0.156947
vn -0.000105219 0.433939 -0.900942
vn -0.809081 0.495313 -0.31631
vn -0.500001 0.594741 0.62951
vn 0.0914783 0.91769 0.386623
vn 0.297974 0.796863 -0.525568
vn -0.309122 0.80151 -0.511884
vn -0.500068 0.862929 0.0727
vn -0.297044 0.352703 0.887336
vn 0.344721 0.390625 0.853569
vn 0.831357 0.245824 0.498413
vn 0.977735 0.205972 -0.0401311
vn 0.78826 0.127657 -0.601955
vn 0.290803 0.0850736 -0.952993
vn -0.33824 0.113233 -0.934223
vn -0.848567 0.136126 -0.511277
vn -0.973876 0.216419 0.0687641
vn -0.753574 0.256915 0.605079
vn -0.197937 0.277091 0.940235
vn 0.239477 -0.360383 0.90154
vn 0.775892 -0.0173945 0.630626
vn 0.814659 -0.571986 0.095723
vn 0.52025 -0.820511 -0.236856
vn 0.197709 -0.0949738 -0.975649
vn -0.255309 -0.732403 -0.631192
vn -0.727161 -0.427179 -0.537359
vn -0.814557 -0.572108 0.0958578
vn -0.63168 -0.442616 0.636452
vn 0.245558 0.0258487 0.969037
vn -0.308476 0.0010469 0.951231
vn 0.992361 -0.108769 0.0582113
vn 0.737525 -0.0273525 0.674766
vn 0.308493 -0.196685 -0.93067
vn 0.805699 -0.158805 -0.57064
vn -0.73751 -0.16716 -0.654322
vn -0.245543 -0.176219 -0.953234
vn -0.805682 -0.0368336 0.591202
vn -0.992342 -0.118657 -0.0343102
o this_is_here_because_of_a_bug_in_simsaprk
o this_is_here_because_of_a_bug_in_simsaprk
o thigh.000_Sphere.003
s on
usemtl naowhite
f 34/1/34 36/2/36 37/3/37
f 31/4/31 40/5/40 41/6/41
f 32/7/32 42/8/42 43/9/43
f 33/10/33 44/11/44 45/12/45
f 46/13/46 34/14/34 37/15/37
f 37/16/37 38/17/38 46/18/46
f 39/19/39 40/20/40 47/21/47
f 31/22/31 47/23/47 40/24/40
f 48/25/48 31/26/31 41/27/41
f 41/28/41 42/29/42 48/30/48
f 32/31/32 48/32/48 42/33/42
f 49/34/49 32/35/32 43/36/43
f 43/37/43 44/38/44 49/39/49
f 33/40/33 49/41/49 44/42/44
f 50/43/50 33/44/33 45/45/45
f 45/46/45 36/47/36 50/48/50
f 34/49/34 50/50/50 36/51/36
f 51/52/51 34/53/34 46/54/46
f 52/55/52 47/56/47 31/57/31
f 53/58/53 48/59/48 32/60/32
f 48/61/48 53/62/53 52/63/52
f 35/64/35 52/65/52 53/66/53
f 52/67/52 31/68/31 48/69/48
f 54/70/54 49/71/49 33/72/33
f 49/73/49 54/74/54 53/75/53
f 35/76/35 53/77/53 54/78/54
f 53/79/53 32/80/32 49/81/49
f 51/82/51 50/83/50 34/84/34
f 50/85/50 51/86/51 54/87/54
f 35/88/35 54/89/54 51/90/51
f 54/91/54 33/92/33 50/93/50
f 38/94/38 39/95/39 46/96/46
f 69/97/69 72/98/72 71/99/71
f 69/100/69 71/101/71 70/102/70
f 68/103/68 73/104/73 69/105/69
f 73/106/73 72/107/72 69/108/69
f 67/109/67 74/110/74 68/111/68
f 74/112/74 73/113/73 68/114/68
f 65/115/65 74/116/74 66/117/66
f 74/118/74 67/119/67 66/120/66
f 39/121/39 47/122/47 46/123/46
f 47/124/47 51/125/51 46/126/46
f 35/127/35 51/128/51 47/129/47
f 35/130/35 47/131/47 52/132/52
f 76/133/76 83/134/83 64/135/64
f 76/136/76 64/137/64 55/138/55
f 21/139/21 30/140/30 83/141/83
f 21/142/21 83/143/83 76/144/76
f 84/145/84 81/146/81 62/147/62
f 84/148/84 62/149/62 63/150/63
f 29/151/29 28/152/28 84/153/84
f 28/154/28 81/155/81 84/156/84
f 82/157/82 79/158/79 60/159/60
f 82/160/82 60/161/60 61/162/61
f 27/163/27 26/164/26 79/165/79
f 27/166/27 79/167/79 82/168/82
f 80/169/80 77/170/77 58/171/58
f 80/172/80 58/173/58 59/174/59
f 25/175/25 24/176/24 77/177/77
f 25/178/25 77/179/77 80/180/80
f 78/181/78 75/182/75 56/183/56
f 78/184/78 56/185/56 57/186/57
f 23/187/23 22/188/22 78/189/78
f 22/190/22 75/191/75 78/192/78
f 83/193/83 84/194/84 63/195/63
f 83/196/83 63/197/63 64/198/64
f 30/199/30 29/200/29 84/201/84
f 30/202/30 84/203/84 83/204/83
f 81/205/81 82/206/82 61/207/61
f 81/208/81 61/209/61 62/210/62
f 28/211/28 27/212/27 81/213/81
f 27/214/27 82/215/82 81/216/81
f 79/217/79 80/218/80 59/219/59
f 79/220/79 59/221/59 60/222/60
f 26/223/26 25/224/25 80/225/80
f 26/226/26 80/227/80 79/228/79
f 77/229/77 78/230/78 57/231/57
f 77/232/77 57/233/57 58/234/58
f 24/235/24 23/236/23 77/237/77
f 23/238/23 78/239/78 77/240/77
f 75/241/75 76/242/76 55/243/55
f 75/244/75 55/245/55 56/246/56
f 76/247/76 75/248/75 22/249/22
f 76/250/76 22/251/22 21/252/21
f 64/253/64 74/254/74 55/255/55
f 74/256/74 65/257/65 55/258/55
f 62/259/62 72/260/72 73/261/73
f 62/262/62 73/263/73 63/264/63
f 60/265/60 70/266/70 61/267/61
f 70/268/70 71/269/71 61/270/61
f 58/271/58 68/272/68 59/273/59
f 68/274/68 69/275/69 59/276/59
f 56/277/56 66/278/66 67/279/67
f 56/280/56 67/281/67 57/282/57
f 63/283/63 73/284/73 74/285/74
f 63/286/63 74/287/74 64/288/64
f 61/289/61 71/290/71 72/291/72
f 61/292/61 72/293/72 62/294/62
f 59/295/59 69/296/69 60/297/60
f 69/298/69 70/299/70 60/300/60
f 57/301/57 67/302/67 58/303/58
f 67/304/67 68/305/68 58/306/58
f 55/307/55 65/308/65 56/309/56
f 65/310/65 66/311/66 56/312/56
f 29/313/29 30/314/30 45/315/45
f 29/316/29 45/317/45 44/318/44
f 23/319/23 24/320/24 38/321/38
f 24/322/24 39/323/39 38/324/38
f 24/325/24 25/326/25 40/327/40
f 24/328/24 40/329/40 39/330/39
f 25/331/25 26/332/26 41/333/41
f 25/334/25 41/335/41 40/336/40
f 26/337/26 27/338/27 42/339/42
f 26/340/26 42/341/42 41/342/41
f 27/343/27 28/344/28 42/345/42
f 28/346/28 43/347/43 42/348/42
f 28/349/28 29/350/29 43/351/43
f 29/352/29 44/353/44 43/354/43
f 21/355/21 36/356/36 30/357/30
f 36/358/36 45/359/45 30/360/30
f 21/361/21 22/362/22 37/363/37
f 21/364/21 37/365/37 36/366/36
f 22/367/22 23/368/23 37/369/37
f 23/370/23 38/371/38 37/372/37
f 13/373/13 14/374/14 15/375/15
f 13/376/13 16/377/16 14/378/14
f 14/379/14 16/380/16 17/381/17
f 10/382/10 12/383/12 20/384/20
f 12/385/12 18/386/18 20/387/20
f 10/388/10 20/389/20 11/390/11
f 20/391/20 19/392/19 11/393/11
f 10/394/10 14/395/14 17/396/17
f 10/397/10 17/398/17 12/399/12
f 10/400/10 11/401/11 15/402/15
f 10/403/10 15/404/15 14/405/14
f 7/406/7 9/407/9 18/408/18
f 9/409/9 20/410/20 18/411/18
f 9/412/9 8/413/8 19/414/19
f 9/415/9 19/416/19 20/417/20
f 8/418/8 2/419/2 19/420/19
f 2/421/2 11/422/11 19/423/19
f 1/424/1 7/425/7 18/426/18
f 1/427/1 18/428/18 12/429/12
f 2/430/2 5/431/5 11/432/11
f 5/433/5 15/434/15 11/435/11
f 4/436/4 1/437/1 12/438/12
f 4/439/4 12/440/12 17/441/17
f 6/442/6 4/443/4 16/444/16
f 4/445/4 17/446/17 16/447/16
f 3/448/3 6/449/6 16/450/16
f 3/451/3 16/452/16 13/453/13
f 5/454/5 3/455/3 13/456/13
f 5/457/5 13/458/13 15/459/15
