# Blender3D v245 OBJ File: soccerbottorso.blend
# www.blender3d.org
mtllib soccerbottorso.mtl
o Cube
v 1.000000 -1.000000 -1.000000
v 1.000000 -1.000000 1.000000
v -1.000000 -1.000000 1.000000
v -1.000000 -1.000000 -1.000000
v 1.000000 1.000000 -1.000000
v 0.999999 1.000000 1.000001
v -1.000000 1.000000 1.000000
v -1.000000 1.000000 -1.000000
vt 0.749999 0.750000 0.0
vt 0.499999 0.749999 0.0
vt 0.499999 0.500000 0.0
vt 0.749999 0.750000 0.0
vt 0.499999 0.500000 0.0
vt 0.749999 0.500000 0.0
vt 0.250000 0.500000 0.0
vt 0.250000 0.250000 0.0
vt 0.499999 0.250000 0.0
vt 0.250000 0.500000 0.0
vt 0.499999 0.250000 0.0
vt 0.499999 0.500000 0.0
vt 0.250000 0.749999 0.0
vt 0.000000 0.749999 0.0
vt 0.250000 0.500000 0.0
vt 0.000000 0.749999 0.0
vt 0.000000 0.500000 0.0
vt 0.250000 0.500000 0.0
vt 0.499999 0.749999 0.0
vt 0.499999 0.999999 0.0
vt 0.250000 0.749999 0.0
vt 0.499999 0.999999 0.0
vt 0.250000 0.999999 0.0
vt 0.250000 0.749999 0.0
vt 0.749999 0.750000 0.0
vt 0.749999 0.500000 0.0
vt 0.999999 0.750000 0.0
vt 0.749999 0.500000 0.0
vt 0.999999 0.500000 0.0
vt 0.999999 0.750000 0.0
vt 0.499999 0.749999 0.0
vt 0.250000 0.749999 0.0
vt 0.250000 0.500000 0.0
vt 0.499999 0.749999 0.0
vt 0.250000 0.500000 0.0
vt 0.499999 0.500000 0.0
vn 0.000000 0.000000 -1.000000
vn -1.000000 0.000000 0.000000
vn 0.000000 0.000000 1.000000
vn -0.000001 0.000000 1.000000
vn 1.000000 0.000000 0.000000
vn 1.000000 0.000000 0.000001
vn 0.000000 1.000000 0.000000
vn 0.000000 -1.000000 0.000000
usemtl naowhite_rcs-torso-03.png
s off
f 5/1/1 1/2/1 4/3/1
f 5/4/1 4/5/1 8/6/1
f 3/7/2 7/8/2 8/9/2
f 3/10/2 8/11/2 4/12/2
f 2/13/3 6/14/3 3/15/3
f 6/16/4 7/17/4 3/18/4
f 1/19/5 5/20/5 2/21/5
f 5/22/6 6/23/6 2/24/6
f 5/25/7 8/26/7 6/27/7
f 8/28/7 7/29/7 6/30/7
f 1/31/8 2/32/8 3/33/8
f 1/34/8 3/35/8 4/36/8
