# Blender3D v245 OBJ File: rfoot.blend
# www.blender3d.org
mtllib nao.mtl
o foot_Sphere.003
v 0.549987 0.550013 0.000010
v 0.550010 -0.549987 0.112636
v 0.549996 0.550010 -0.249992
v 0.550022 -0.549990 -0.249992
v 0.442733 0.275011 0.112634
v 0.442739 0.000011 0.112634
v 0.442746 -0.274989 0.112634
v 0.442744 0.275008 -0.249995
v 0.442751 0.000008 -0.249995
v 0.442757 -0.274992 -0.249995
v 0.549992 0.275010 0.112636
v 0.549999 0.000010 0.112636
v 0.550005 -0.274990 0.112636
v 0.550004 0.275008 -0.249992
v 0.550010 0.000008 -0.249992
v 0.550016 -0.274992 -0.249992
v 0.504018 0.666012 -0.002946
v 0.385753 0.843002 -0.002947
v 0.208759 0.961261 -0.002950
v -0.000018 1.002786 -0.002952
v -0.208795 0.961254 -0.002954
v -0.385787 0.842987 -0.002956
v -0.504048 0.665993 -0.002957
v -0.504048 0.650101 0.076939
v -0.385787 0.813624 0.144672
v -0.208795 0.922888 0.189931
v -0.000018 0.961260 0.205825
v 0.208759 0.922896 0.189935
v 0.385753 0.813639 0.144680
v 0.504017 0.650120 0.076950
v 0.545548 0.457235 -0.002945
v -0.545574 0.457215 -0.002957
v 0.504016 0.757881 -0.002946
v 0.385751 0.934872 -0.002947
v 0.208758 1.053131 -0.002950
v -0.000020 1.094655 -0.002952
v -0.208797 1.053123 -0.002954
v -0.385788 0.934857 -0.002956
v -0.504049 0.757862 -0.002957
v -0.504049 0.741971 0.076939
v -0.385788 0.905494 0.144672
v -0.208797 1.014758 0.189931
v -0.000020 1.053129 0.205825
v 0.208758 1.014766 0.189935
v 0.385751 0.905508 0.144680
v 0.504016 0.741990 0.076950
v 0.545546 0.549105 -0.002945
v -0.545576 0.549084 -0.002957
v 0.545558 0.460340 -0.006322
v 0.504027 0.669116 -0.006323
v 0.385763 0.846106 -0.006324
v 0.208769 0.964366 -0.006327
v -0.000008 1.005890 -0.006329
v -0.208785 0.964358 -0.006331
v -0.385777 0.846092 -0.006333
v -0.504038 0.669097 -0.006334
v -0.504038 0.653206 0.073562
v -0.385777 0.816729 0.141295
v -0.208785 0.925993 0.186554
v -0.000008 0.964364 0.202448
v 0.208769 0.926001 0.186559
v 0.385763 0.816743 0.141304
v 0.504027 0.653225 0.073573
v 0.504028 0.607968 0.141305
v 0.385764 0.733120 0.266456
v 0.208770 0.816742 0.350079
v -0.000008 0.846103 0.379441
v -0.208784 0.816734 0.350074
v -0.385776 0.733105 0.266448
v -0.504037 0.607949 0.141294
v -0.504037 0.540218 0.186551
v -0.385775 0.607954 0.350072
v -0.208783 0.653215 0.459335
v -0.000006 0.669112 0.497704
v 0.208771 0.653223 0.459340
v 0.385765 0.607968 0.350081
v 0.504028 0.540236 0.186563
v 0.504029 0.460341 0.202455
v 0.385766 0.460341 0.379446
v 0.208773 0.460339 0.497707
v -0.000004 0.460335 0.539233
v -0.208781 0.460331 0.497702
v -0.385774 0.460326 0.379438
v -0.504036 0.460322 0.202444
v -0.545564 0.460319 -0.006334
v -0.388931 0.938900 -0.000007
v -0.210501 1.058129 -0.000004
v -0.000026 1.100000 0.000000
v 0.210451 1.058139 0.000004
v 0.388887 0.938918 0.000007
v 0.508116 0.760488 0.000009
v 0.549987 0.550013 0.000010
v -0.550013 0.549987 -0.000010
v -0.508151 0.760464 -0.000009
v -0.549990 -0.550013 0.112616
v -0.508119 -0.760488 0.112617
v -0.388890 -0.938918 0.112619
v -0.210454 -1.058139 0.112622
v 0.000026 -1.100000 -0.000000
v 0.210498 -1.058129 0.112630
v 0.388928 -0.938900 0.112633
v 0.508149 -0.760464 0.112635
v 0.550010 -0.549987 0.112636
v -0.388922 0.938897 -0.250009
v -0.210492 1.058126 -0.250006
v -0.000017 1.099997 -0.250002
v 0.210460 1.058136 -0.249998
v 0.388896 0.938915 -0.249995
v 0.508125 0.760485 -0.249993
v 0.549996 0.550010 -0.249992
v -0.550004 0.549985 -0.250012
v -0.508142 0.760462 -0.250011
v -0.549978 -0.550015 -0.250012
v -0.508107 -0.760490 -0.250011
v -0.388878 -0.938920 -0.250009
v -0.210442 -1.058141 -0.250006
v 0.000035 -1.100003 -0.250002
v 0.210510 -1.058132 -0.249998
v 0.388940 -0.938902 -0.249995
v 0.508160 -0.760467 -0.249993
v 0.550022 -0.549990 -0.249992
v 0.442733 0.275011 0.112634
v 0.442739 0.000011 0.112634
v 0.442746 -0.274989 0.112634
v -0.550009 0.274987 0.112616
v -0.550003 -0.000013 0.112616
v -0.549996 -0.275013 0.112616
v 0.442744 0.275008 -0.249995
v 0.442751 0.000008 -0.249995
v 0.442757 -0.274992 -0.249995
v -0.549997 0.274985 -0.250012
v -0.549991 -0.000015 -0.250012
v -0.549985 -0.275015 -0.250012
vn 0.707083 0.267983 0.654347
vn 0.000000 0.193121 0.981170
vn 0.632649 0.149571 0.759819
vn 0.707114 0.000000 -0.707083
vn 0.000000 0.000000 -1.000000
vn 0.705161 0.000000 -0.709037
vn 0.707083 0.000000 0.707114
vn 0.000000 0.000000 1.000000
vn 0.737632 0.308084 -0.600787
vn 0.855495 0.218390 0.469466
vn 0.867214 0.082278 -0.491043
vn -0.737632 0.308054 -0.600787
vn -0.867214 0.082247 -0.491043
vn -0.855495 0.218360 0.469466
vn -0.578082 0.580157 -0.573748
vn -0.640522 0.440809 0.628773
vn -0.317484 0.768242 -0.555834
vn -0.344890 0.610492 0.712943
vn 0.000000 0.837031 -0.547105
vn 0.000000 0.673818 0.738853
vn 0.317454 0.768273 -0.555834
vn 0.345500 0.612079 0.711295
vn 0.578051 0.580187 -0.573748
vn 0.641377 0.442030 0.627064
vn 0.854732 0.000000 -0.519028
vn -0.854732 0.000000 -0.519028
vn -0.721366 0.000000 0.692526
vn 0.721366 0.000000 0.692526
vn 0.375744 0.000000 0.926695
vn 0.162420 0.000000 0.986694
vn -0.003723 0.000000 0.999969
vn -0.166173 0.000000 0.986084
vn -0.375774 0.000000 0.926695
vn 0.705130 0.000000 0.709067
vn 0.703207 0.000000 -0.710959
vn -0.296426 0.717429 -0.630390
vn 0.000000 0.774895 -0.632069
vn 0.296518 0.715903 -0.632038
vn -0.295907 0.714316 0.634144
vn 0.295175 0.712729 0.636250
vn -0.000702 0.776269 0.630360
vn -0.296487 -0.715903 -0.632069
vn 0.296548 -0.715903 -0.632038
vn 0.000000 -0.774895 -0.632038
vn -0.234535 -0.739982 0.630390
vn 0.000000 -0.992706 0.120487
vn 0.234535 -0.739952 0.630390
vn 0.755486 0.142125 0.639546
vn -0.705161 0.000000 0.709037
vn -0.742058 -0.072726 0.666341
vn 0.791162 0.069613 0.607624
vn -0.705161 0.000000 0.709006
vn 0.705283 0.007080 0.708853
vn -0.632710 0.149541 0.759789
vn 0.732627 0.066836 0.677297
vn -0.663869 0.206214 0.718833
vn -0.709037 0.000000 -0.705161
vn 0.758904 0.142766 -0.635304
vn -0.743767 -0.073611 -0.664327
vn 0.791192 0.069613 -0.607562
vn -0.707083 0.000000 -0.707114
vn 0.760399 -0.142338 -0.633625
vn -0.742180 0.073061 -0.666158
vn 0.791192 -0.069582 -0.607562
vn -0.547929 -0.547929 0.632038
vn 0.547929 -0.547899 0.632069
vn -0.715873 -0.295785 0.632466
vn 0.712729 -0.295206 0.636280
vn -0.547899 -0.547929 -0.632069
vn 0.547960 -0.547929 -0.632038
vn -0.715873 -0.296548 -0.632069
vn 0.715934 -0.296518 -0.632038
vn 0.712699 0.295236 0.636250
vn -0.712760 0.295206 0.636219
vn 0.715903 0.296548 -0.632038
vn -0.715903 0.296518 -0.632069
vn -0.545518 0.545488 0.636219
vn 0.545488 0.545518 0.636250
vn -0.547929 0.547899 -0.632069
vn 0.547929 0.547929 -0.632038
vn -0.798395 -0.584124 0.146123
vn -0.913846 0.375103 0.155370
vn -0.921415 0.381085 0.075777
vn 0.913846 0.375103 0.155370
vn 0.798395 -0.584094 0.146123
vn 0.921415 0.381085 0.075777
vn 0.913846 0.287088 0.287088
vn -0.913846 0.287088 0.287088
vn -0.913846 0.155370 0.375103
vn 0.913846 0.155370 0.375103
vn 0.739189 -0.598529 0.308725
vn -0.739189 -0.598559 0.308725
vn 0.318094 -0.553362 0.769768
vn 0.000000 -0.547105 0.837062
vn -0.318094 -0.553392 0.769768
vn 0.579241 -0.571368 0.581347
vn -0.579211 -0.571398 0.581347
vn -0.696188 0.274697 0.663198
vn -0.376049 0.354564 0.856044
vn 0.000000 0.382672 0.923856
vn 0.376019 0.354595 0.856044
vn 0.696158 0.274697 0.663198
vn 0.696158 0.507614 0.507584
vn 0.376019 0.655202 0.655202
vn 0.000000 0.707083 0.707083
vn -0.376049 0.655202 0.655171
vn -0.696188 0.507584 0.507584
vn -0.696188 0.663198 0.274697
vn -0.376049 0.856044 0.354564
vn 0.000000 0.923856 0.382672
vn 0.376019 0.856075 0.354564
vn 0.696158 0.663228 0.274697
vn 0.700705 0.699698 0.139164
vn 0.376812 0.908475 0.180670
vn 0.000000 0.980773 0.195074
vn -0.376843 0.908444 0.180670
vn -0.700736 0.699667 0.139164
usemtl matTeam
s 1
f 1//1 5//2 11//3
f 3//4 14//4 8//5
f 4//4 10//5 16//6
f 2//7 13//7 7//8
f 33//9 46//10 47//11
f 39//12 48//13 40//14
f 38//15 39//12 40//14
f 38//15 40//14 41//16
f 37//17 38//15 41//16
f 37//17 41//16 42//18
f 36//19 37//17 42//18
f 36//19 42//18 43//20
f 35//21 36//19 43//20
f 35//21 43//20 44//22
f 34//23 35//21 44//22
f 34//23 44//22 45//24
f 33//9 34//23 46//10
f 34//23 45//24 46//10
f 17//5 33//9 47//11
f 17//5 47//11 31//25
f 32//26 48//13 23//5
f 48//13 39//12 23//5
f 24//27 40//14 48//13
f 24//27 48//13 32//26
f 31//25 47//11 30//28
f 47//11 46//10 30//28
f 30//28 46//10 29//29
f 46//10 45//24 29//29
f 29//29 45//24 28//30
f 45//24 44//22 28//30
f 28//30 44//22 27//31
f 44//22 43//20 27//31
f 27//31 43//20 42//18
f 27//31 42//18 26//32
f 26//32 42//18 41//16
f 26//32 41//16 25//33
f 25//33 41//16 40//14
f 25//33 40//14 24//27
f 23//5 39//12 22//5
f 39//12 38//15 22//5
f 22//5 38//15 21//5
f 38//15 37//17 21//5
f 21//5 37//17 20//5
f 37//17 36//19 20//5
f 20//5 36//19 35//21
f 20//5 35//21 19//5
f 19//5 35//21 34//23
f 19//5 34//23 18//5
f 33//9 17//5 18//5
f 33//9 18//5 34//23
f 6//8 7//8 12//34
f 7//8 13//7 12//34
f 5//2 6//8 11//3
f 6//8 12//34 11//3
f 9//5 15//35 10//5
f 15//35 16//6 10//5
f 8//5 14//4 9//5
f 14//4 15//35 9//5
f 2//7 4//4 16//6
f 2//7 16//6 13//7
f 12//34 13//7 15//35
f 13//7 16//6 15//35
f 11//3 12//34 14//4
f 12//34 15//35 14//4
f 1//1 11//3 14//4
f 1//1 14//4 3//4
usemtl naowhite
f 105//36 106//37 107//38
f 87//39 89//40 88//41
f 116//42 118//43 117//44
f 98//45 99//46 100//47
f 124//48 127//49 95//50
f 124//48 95//50 103//51
f 123//7 126//52 124//48
f 126//52 127//49 124//48
f 122//53 125//54 123//7
f 125//54 126//52 123//7
f 92//55 93//56 122//53
f 93//56 125//54 122//53
f 133//57 130//58 113//59
f 130//58 121//60 113//59
f 132//61 129//4 130//58
f 132//61 130//58 133//57
f 131//57 128//62 129//4
f 131//57 129//4 132//61
f 111//63 110//64 128//62
f 111//63 128//62 131//57
f 131//57 125//54 93//56
f 131//57 93//56 111//63
f 132//61 126//52 131//57
f 126//52 125//54 131//57
f 133//57 127//49 132//61
f 127//49 126//52 132//61
f 113//59 95//50 133//57
f 95//50 127//49 133//57
f 122//53 128//62 92//55
f 128//62 110//64 92//55
f 123//7 129//4 128//62
f 123//7 128//62 122//53
f 124//48 130//58 129//4
f 124//48 129//4 123//7
f 103//51 121//60 130//58
f 103//51 130//58 124//48
f 97//65 98//45 100//47
f 97//65 100//47 101//66
f 96//67 97//65 101//66
f 96//67 101//66 102//68
f 115//69 119//70 118//43
f 115//69 118//43 116//42
f 114//71 120//72 115//69
f 120//72 119//70 115//69
f 95//50 96//67 102//68
f 95//50 102//68 103//51
f 113//59 121//60 120//72
f 113//59 120//72 114//71
f 91//73 94//74 93//56
f 91//73 93//56 92//55
f 109//75 110//64 111//63
f 109//75 111//63 112//76
f 86//77 94//74 90//78
f 94//74 91//73 90//78
f 104//79 108//80 112//76
f 108//80 109//75 112//76
f 86//77 90//78 89//40
f 86//77 89//40 87//39
f 104//79 105//36 107//38
f 104//79 107//38 108//80
f 102//68 120//72 121//60
f 102//68 121//60 103//51
f 101//66 119//70 102//68
f 119//70 120//72 102//68
f 100//47 118//43 101//66
f 118//43 119//70 101//66
f 99//46 117//44 118//43
f 99//46 118//43 100//47
f 98//45 116//42 99//46
f 116//42 117//44 99//46
f 97//65 115//69 98//45
f 115//69 116//42 98//45
f 96//67 114//71 97//65
f 114//71 115//69 97//65
f 95//50 113//59 96//67
f 113//59 114//71 96//67
f 104//79 112//76 86//77
f 112//76 94//74 86//77
f 94//74 112//76 93//56
f 112//76 111//63 93//56
f 92//55 110//64 109//75
f 92//55 109//75 91//73
f 91//73 109//75 108//80
f 91//73 108//80 90//78
f 90//78 108//80 107//38
f 90//78 107//38 89//40
f 89//40 107//38 106//37
f 89//40 106//37 88//41
f 88//41 106//37 105//36
f 88//41 105//36 87//39
f 87//39 105//36 104//79
f 87//39 104//79 86//77
f 85//81 57//82 56//83
f 63//84 49//85 50//86
f 64//87 49//85 63//84
f 85//81 70//88 57//82
f 85//81 71//89 70//88
f 77//90 49//85 64//87
f 78//91 49//85 77//90
f 85//81 84//92 71//89
f 80//93 81//94 82//95
f 79//96 80//93 82//95
f 79//96 82//95 83//97
f 78//91 79//96 83//97
f 78//91 83//97 84//92
f 49//85 78//91 84//92
f 49//85 84//92 85//81
f 71//89 84//92 83//97
f 71//89 83//97 72//98
f 72//98 83//97 82//95
f 72//98 82//95 73//99
f 73//99 82//95 81//94
f 73//99 81//94 74//100
f 74//100 81//94 80//93
f 74//100 80//93 75//101
f 75//101 80//93 79//96
f 75//101 79//96 76//102
f 76//102 79//96 77//90
f 79//96 78//91 77//90
f 65//103 76//102 64//87
f 76//102 77//90 64//87
f 66//104 75//101 76//102
f 66//104 76//102 65//103
f 67//105 74//100 75//101
f 67//105 75//101 66//104
f 68//106 73//99 74//100
f 68//106 74//100 67//105
f 69//107 72//98 73//99
f 69//107 73//99 68//106
f 70//88 71//89 72//98
f 70//88 72//98 69//107
f 57//82 70//88 58//108
f 70//88 69//107 58//108
f 58//108 69//107 59//109
f 69//107 68//106 59//109
f 59//109 68//106 60//110
f 68//106 67//105 60//110
f 60//110 67//105 61//111
f 67//105 66//104 61//111
f 61//111 66//104 65//103
f 61//111 65//103 62//112
f 62//112 65//103 64//87
f 62//112 64//87 63//84
f 51//113 62//112 63//84
f 51//113 63//84 50//86
f 52//114 61//111 51//113
f 61//111 62//112 51//113
f 53//115 60//110 52//114
f 60//110 61//111 52//114
f 54//116 59//109 53//115
f 59//109 60//110 53//115
f 55//117 58//108 54//116
f 58//108 59//109 54//116
f 56//83 57//82 55//117
f 57//82 58//108 55//117
